<svg xmlns="http://www.w3.org/2000/svg" viewBox="0 0 108.25 160.8"><defs><style>.cls-1{fill:#d1161a;}.cls-2{fill:#231815;}</style></defs><title>アセット 7</title><g id="レイヤー_2" data-name="レイヤー 2"><g id="_2019_ol" data-name="2019_ol"><path class="cls-1" d="M76.3,12.54a21.62,21.62,0,0,1,7.89,10.85h0A21.66,21.66,0,0,1,81.68,42,32,32,0,0,1,85,49.13c.17.52.32,1.06.46,1.59a30.37,30.37,0,0,0,6.7-11.31,30.33,30.33,0,0,0,0-18.61h0a29.86,29.86,0,0,0-10.94-15h0A29.86,29.86,0,0,0,63.56,0h0a29.36,29.36,0,0,0-5.46.52,32.16,32.16,0,0,1,5.68,3.29,32.5,32.5,0,0,1,5.81,5.43,21.63,21.63,0,0,1,6.73,3.3Z"/><path class="cls-1" d="M69.38,80.57a32.38,32.38,0,0,1-7.9-1,21.74,21.74,0,0,1-20.14-2.85,21.9,21.9,0,0,1-7.89-10.86,21.4,21.4,0,0,1-1-5.68,32.17,32.17,0,0,1-6.71-3.68h0l-.14-.1h0l-.15-.12c-.39-.29-.78-.58-1.16-.89A31.7,31.7,0,0,0,24,59.17a30.2,30.2,0,0,0,1.46,9.31h0a30.41,30.41,0,0,0,10.94,15A30.05,30.05,0,0,0,75.91,79.9a32.59,32.59,0,0,1-6.53.67Z"/><path class="cls-1" d="M10.18,57.37A29.87,29.87,0,0,0,21.12,72.42h0a30.39,30.39,0,0,0,4.72,2.8,33.12,33.12,0,0,1-2.66-6,32.58,32.58,0,0,1-1.5-7.82,21.69,21.69,0,0,1-3.51-6.62h0a21.53,21.53,0,0,1,0-13.42h0A21.93,21.93,0,0,1,26.05,30.5h0a21.51,21.51,0,0,1,5.09-2.73,31.7,31.7,0,0,1,1.49-7.71c.17-.53.36-1,.55-1.56a30.1,30.1,0,0,0-12.06,5.21h0a30.38,30.38,0,0,0-10.94,15,30,30,0,0,0,0,18.61Z"/><path class="cls-1" d="M19.71,21.77a31.92,31.92,0,0,1,7-3.84,21.71,21.71,0,0,1,18-9.53h0a21.84,21.84,0,0,1,12.76,4.14h0a21.65,21.65,0,0,1,4.18,4,32.21,32.21,0,0,1,7.79-1c.55,0,1.1,0,1.65,0a30.77,30.77,0,0,0-2-3.2,29.8,29.8,0,0,0-6.65-6.66A30.41,30.41,0,0,0,44.65,0h0A30.12,30.12,0,0,0,16,20.8h0a30.76,30.76,0,0,0-1.2,5.36A31.83,31.83,0,0,1,19.71,21.77Z"/><path class="cls-1" d="M24,36.81h0q-.13-.41-.24-.81a19.19,19.19,0,0,0-3.31,6.11h0a19.31,19.31,0,0,0-.9,4.6c.24.36.49.73.75,1.08A30.06,30.06,0,0,0,27,54.46h0A30.33,30.33,0,0,0,39,59.66c-.19-.51-.38-1-.55-1.54l-2.66-8.2a21.76,21.76,0,0,1-3.92-2.25h0a21.9,21.9,0,0,1-4.8-4.81A21.5,21.5,0,0,1,24,36.81Z"/><path class="cls-1" d="M33.7,33.93c.36-.29.74-.58,1.12-.85L42,27.89a22.13,22.13,0,0,1,.94-4.49h0A22.1,22.1,0,0,1,46,17.34a21.64,21.64,0,0,1,4.8-4.8h0l.7-.49A19.22,19.22,0,0,0,40,11.36c-.28.34-.54.7-.8,1.05a29.84,29.84,0,0,0-4.28,8.39h0A30.25,30.25,0,0,0,33.7,33.93Z"/><path class="cls-1" d="M42.75,74.8a19.64,19.64,0,0,0,4.1,2.28q.63-.18,1.26-.39a29.6,29.6,0,0,0,8.4-4.27,30.09,30.09,0,0,0,8.67-9.86c-.54,0-1.09,0-1.63,0H54.93a21.57,21.57,0,0,1-3.36,3h0a21.89,21.89,0,0,1-12.76,4.14h0l-.85,0A19.46,19.46,0,0,0,42.75,74.8Z"/><path class="cls-1" d="M72.46,53.2a18.38,18.38,0,0,0-1.18-2.83,21.77,21.77,0,0,1-7.74,1.44H50.29L51,54a19.47,19.47,0,0,0,3.35,6.17h9.18a30.22,30.22,0,0,0,9.84-1.67A19.24,19.24,0,0,0,72.46,53.2Z"/><path class="cls-1" d="M37.91,48.61l2.84,8.76a30.21,30.21,0,0,0,4.64,8.85,19.13,19.13,0,0,0,4.73-2.5l.05,0a18.89,18.89,0,0,0,2.32-2,21.92,21.92,0,0,1-3.76-6.91L44.66,42.23l-2.09,1.52A19.25,19.25,0,0,0,37.91,48.61Z"/><path class="cls-1" d="M29.24,42.16a19,19,0,0,0,3.89,3.76h0a18.34,18.34,0,0,0,2.62,1.6,21.62,21.62,0,0,1,5.41-5.71l10.94-8-1.94-1.41a19.31,19.31,0,0,0-6.27-3L36.23,35A30.37,30.37,0,0,0,29.24,42.16Z"/><path class="cls-1" d="M61.2,49.41h2.34a19.29,19.29,0,0,0,6.89-1.28h0l2.84-8.72a30.42,30.42,0,0,0,1.45-9.88A18.66,18.66,0,0,0,66.32,29a21.73,21.73,0,0,1-1,7.8Z"/><path class="cls-1" d="M47.55,19.28a19.41,19.41,0,0,0-2.38,4.86l0,.05a18.92,18.92,0,0,0-.68,2.93,21.93,21.93,0,0,1,7.1,3.39l10.72,7.78L63,36.07a19.74,19.74,0,0,0,.91-6.94v0l-7.43-5.4A30.3,30.3,0,0,0,47.55,19.28Z"/><path class="cls-1" d="M74.47,66.69a19.51,19.51,0,0,0,9.7-6.2q0-.66,0-1.32A29.95,29.95,0,0,0,76,38.57c-.13.53-.29,1-.46,1.57l-2.66,8.2a21.69,21.69,0,0,1,1.84,4.12,21.77,21.77,0,0,1,0,13.42C74.66,66.16,74.56,66.42,74.47,66.69Z"/><path class="cls-1" d="M90,54.78a21.52,21.52,0,0,1-7.88,10.85h0a21.94,21.94,0,0,1-12.76,4.15h0A21.4,21.4,0,0,1,63.65,69a32,32,0,0,1-5.73,5.37c-.45.32-.91.63-1.37.93a27.52,27.52,0,0,0,3.53,1.39,29.77,29.77,0,0,0,9.3,1.49h0a30.37,30.37,0,0,0,17.69-5.76A29.81,29.81,0,0,0,98,57.37h0a29.9,29.9,0,0,0,0-18.61,30.7,30.7,0,0,0-2.18-5,32.18,32.18,0,0,1-4.75,13.62A21.72,21.72,0,0,1,90,54.78Z"/><path class="cls-1" d="M69.38,18a30.22,30.22,0,0,0-12.54,2.76c.42.28.84.56,1.25.86l7.14,5.19a21.47,21.47,0,0,1,4.15-.41A21.7,21.7,0,0,1,82.14,30.5c.23.17.46.34.68.52a19.42,19.42,0,0,0-.92-6.89,18.94,18.94,0,0,0-2-4.25c-.41-.16-.82-.3-1.24-.44A30,30,0,0,0,69.38,18Z"/><path class="cls-2" d="M2.43,101.67v19h4v2.25H0V101.67Z"/><path class="cls-2" d="M12.42,123.11h-.91c-2.64,0-3.95-1.31-3.95-4V105.44c0-2.64,1.31-4,4-4h.91c2.64,0,4,1.31,4,4v13.72C16.37,121.8,15.06,123.11,12.42,123.11Zm-.09-19.4H11.6A1.4,1.4,0,0,0,10,105.32v14a1.4,1.4,0,0,0,1.61,1.61h.73a1.41,1.41,0,0,0,1.61-1.61v-14A1.41,1.41,0,0,0,12.33,103.71Z"/><path class="cls-2" d="M18.61,101.67h4c3.19,0,4.7,1.52,4.7,4.71v11.84c0,3.19-1.51,4.71-4.7,4.71h-4Zm2.43,19H22.5c1.64,0,2.39-.82,2.39-2.46v-11.9c0-1.64-.75-2.46-2.39-2.46H21Z"/><path class="cls-2" d="M39.22,112.6a.76.76,0,0,1-.82-.85v-1.82a1.62,1.62,0,0,0-1.82-1.85h-.42a1.62,1.62,0,0,0-1.83,1.85v9.69a1.6,1.6,0,0,0,1.83,1.82h.45a1.6,1.6,0,0,0,1.82-1.82v-2.37a.75.75,0,0,1,.82-.82h.06a.76.76,0,0,1,.86.82v2.31c0,2.34-1.19,3.55-3.53,3.55h-.51c-2.37,0-3.56-1.21-3.56-3.55V110q0-3.55,3.56-3.55h.51c2.34,0,3.49,1.18,3.49,3.49v1.82a.77.77,0,0,1-.85.85Z"/><path class="cls-2" d="M44.29,122.14a.77.77,0,0,1-.85.85h-.06a.76.76,0,0,1-.82-.85v-20a.76.76,0,0,1,.82-.85h.06a.77.77,0,0,1,.85.85v5.74a4.16,4.16,0,0,1,3-1.46,2.47,2.47,0,0,1,2.79,2.79v12.91a.74.74,0,0,1-.82.85h-.06a.74.74,0,0,1-.85-.85V109.57c0-1.07-.55-1.52-1.43-1.52a4.08,4.08,0,0,0-2.67,1.37Z"/><path class="cls-2" d="M58,121.74a4.17,4.17,0,0,1-3,1.37,2.37,2.37,0,0,1-2.67-2.7v-3c0-1.88.63-2.7,2.42-3.34L58,112.85v-3c0-1.12-.57-1.73-1.88-1.73s-1.88.61-1.88,1.73v1.4a.67.67,0,0,1-.76.76h-.21a.65.65,0,0,1-.73-.73v-1.37c0-2.28,1.18-3.43,3.61-3.43s3.58,1.15,3.58,3.43v12.27c0,.58-.27.85-.82.85h-.06a.74.74,0,0,1-.85-.85Zm-2.52-.24h.06A3.93,3.93,0,0,0,58,120.23v-5.77l-2.49.94a1.82,1.82,0,0,0-1.39,2v2.67C54.13,121.05,54.61,121.5,55.49,121.5Z"/><path class="cls-2" d="M63.14,123a.77.77,0,0,1-.85-.85v-20a.77.77,0,0,1,.85-.85h.06a.77.77,0,0,1,.85.85v20a.77.77,0,0,1-.85.85Z"/><path class="cls-2" d="M67.57,123a.77.77,0,0,1-.85-.85v-20a.77.77,0,0,1,.85-.85h.06a.77.77,0,0,1,.86.85v20a.78.78,0,0,1-.86.85Z"/><path class="cls-2" d="M78.47,119.56c0,2.34-1.21,3.55-3.55,3.55H74.5c-2.37,0-3.56-1.21-3.56-3.55V110c0-2.34,1.19-3.55,3.56-3.55h.42c2.34,0,3.55,1.21,3.55,3.55v4.47a.91.91,0,0,1-1,1H72.7v4.16a1.62,1.62,0,0,0,1.86,1.82h.36a1.63,1.63,0,0,0,1.85-1.82v-1.16a.76.76,0,0,1,.82-.82h.06a.75.75,0,0,1,.82.82Zm-5.77-9.63v3.86h4v-3.86a1.63,1.63,0,0,0-1.82-1.85h-.33A1.64,1.64,0,0,0,72.7,109.93Z"/><path class="cls-2" d="M81.72,123h-.06c-.55,0-.82-.27-.82-.85V107.35a.71.71,0,0,1,.82-.79h.06c.55,0,.85.27.85.79v.55a4.06,4.06,0,0,1,3-1.46,2.46,2.46,0,0,1,2.79,2.79v12.91a.74.74,0,0,1-.82.85h-.06a.74.74,0,0,1-.85-.85V109.57c0-1.1-.55-1.52-1.43-1.52a3.9,3.9,0,0,0-2.67,1.37v12.72A.75.75,0,0,1,81.72,123Z"/><path class="cls-2" d="M96.66,107.84v-.46a.72.72,0,0,1,.82-.82h.06c.57,0,.85.27.85.82v15.76c0,2.22-1.06,3.25-3.34,3.25H94c-2.13,0-3.13-.94-3.13-3v-.12c0-.51.27-.73.76-.73h.09c.48,0,.76.25.76.67v.12c0,1,.42,1.46,1.58,1.46h1.06a1.33,1.33,0,0,0,1.52-1.49V120a4.24,4.24,0,0,1-3,1.4,2.65,2.65,0,0,1-2.88-3v-9c0-1.89.94-3,2.88-3A4.08,4.08,0,0,1,96.66,107.84Zm-2.67.21c-.89,0-1.49.45-1.49,1.58v8.65A1.36,1.36,0,0,0,94,119.8a3.92,3.92,0,0,0,2.64-1.31v-9A4.1,4.1,0,0,0,94,108.05Z"/><path class="cls-2" d="M108.25,119.56c0,2.34-1.21,3.55-3.55,3.55h-.42c-2.37,0-3.56-1.21-3.56-3.55V110c0-2.34,1.19-3.55,3.56-3.55h.42c2.34,0,3.55,1.21,3.55,3.55v4.47a.91.91,0,0,1-1,1h-4.77v4.16a1.62,1.62,0,0,0,1.86,1.82h.36a1.63,1.63,0,0,0,1.85-1.82v-1.16a.76.76,0,0,1,.82-.82h.06a.75.75,0,0,1,.82.82Zm-5.77-9.63v3.86h4v-3.86a1.63,1.63,0,0,0-1.82-1.85h-.33A1.64,1.64,0,0,0,102.48,109.93Z"/><path class="cls-2" d="M41.38,148.68a3.18,3.18,0,0,0,.93-2.28v-3.18c0-1.08-.51-1.59-1.53-1.59H40.3c-1,0-1.53.51-1.53,1.59v4H36.43v-3.84c0-2.61,1.29-3.9,3.84-3.9h.6c2.55,0,3.84,1.29,3.84,3.9V146a5.77,5.77,0,0,1-1.56,4.08l-3.39,4.26a3.58,3.58,0,0,0-1,2.79v1.23h5.94v2.22H36.37V157A5.77,5.77,0,0,1,38,152.94Z"/><path class="cls-2" d="M51.37,160.8h-.78c-2.61,0-3.9-1.29-3.9-3.9V143.34c0-2.61,1.29-3.9,3.9-3.9h.78c2.61,0,3.9,1.29,3.9,3.9V156.9C55.27,159.51,54,160.8,51.37,160.8Zm-.06-19.17h-.66a1.39,1.39,0,0,0-1.59,1.59V157a1.39,1.39,0,0,0,1.59,1.59h.66A1.39,1.39,0,0,0,52.9,157v-13.8A1.39,1.39,0,0,0,51.31,141.63Z"/><path class="cls-2" d="M60.85,160.62H58.57V143.37h-2v-1.86l.24,0A3.16,3.16,0,0,0,59.26,140l.36-.48h1.23Z"/><path class="cls-2" d="M69.28,157v-5.34a5.19,5.19,0,0,1-2.49.63H66.7a3.21,3.21,0,0,1-3.39-3.48v-5.49c0-2.61,1.29-3.9,3.9-3.9h.54c2.61,0,3.9,1.29,3.9,3.9V156.9c0,2.61-1.29,3.9-3.9,3.9h-.57c-2.64,0-3.84-1.14-3.84-3.78v-2.67h2.31V157c0,1.08.51,1.59,1.53,1.59h.57C68.77,158.61,69.28,158.1,69.28,157Zm0-13.8c0-1.08-.51-1.59-1.53-1.59h-.57c-1,0-1.53.51-1.53,1.59v5.16c0,1.2.57,1.71,1.59,1.71a5.12,5.12,0,0,0,2-.45Z"/></g></g></svg>