<svg xmlns="http://www.w3.org/2000/svg" viewBox="0 0 215.87 54.49"><defs><style>.cls-1{fill:#d1161a;}.cls-2{fill:#231815;}</style></defs><title>アセット 8</title><g id="レイヤー_2" data-name="レイヤー 2"><g id="_2019_ol" data-name="2019_ol"><path class="cls-1" d="M41.26,7.66a13.11,13.11,0,0,1,4.81,6.62h0a13.32,13.32,0,0,1,0,8.19,12.7,12.7,0,0,1-1.53,3.17,19.37,19.37,0,0,1,2,4.35c.11.32.2.64.29,1a19.42,19.42,0,0,0,1.47-1.79A18.3,18.3,0,0,0,51,12.7h0a18.21,18.21,0,0,0-6.67-9.19h0A18.28,18.28,0,0,0,33.49,0h0a17.64,17.64,0,0,0-3.33.32,19.83,19.83,0,0,1,3.46,2,19.61,19.61,0,0,1,3.55,3.32,13.12,13.12,0,0,1,4.11,2Z"/><path class="cls-1" d="M37,49.18a20,20,0,0,1-4.82-.6,13.35,13.35,0,0,1-12.3-1.74,13.22,13.22,0,0,1-5.45-10.1,19.64,19.64,0,0,1-4.09-2.25h0l-.09-.06h0l-.09-.07c-.24-.17-.48-.35-.71-.54a19.62,19.62,0,0,0-.14,2.31,18.46,18.46,0,0,0,.89,5.67h0A18.54,18.54,0,0,0,16.91,51,18.27,18.27,0,0,0,41,48.76a19.08,19.08,0,0,1-4,.42Z"/><path class="cls-1" d="M.91,35A18.15,18.15,0,0,0,7.58,44.2h0a18.21,18.21,0,0,0,2.88,1.71,19.6,19.6,0,0,1-1.62-3.66,19.93,19.93,0,0,1-.92-4.77,13.33,13.33,0,0,1-2.14-4h0a13.14,13.14,0,0,1,0-8.18h0a13.35,13.35,0,0,1,4.81-6.63h0A12.94,12.94,0,0,1,13.7,17a19.63,19.63,0,0,1,.9-4.71c.11-.32.22-.63.34-1a18.66,18.66,0,0,0-7.36,3.18h0A18.49,18.49,0,0,0,.91,23.66,18.23,18.23,0,0,0,.91,35Z"/><path class="cls-1" d="M6.72,13.29A19.58,19.58,0,0,1,11,10.94a12.9,12.9,0,0,1,3.19-3.28,13.09,13.09,0,0,1,7.77-2.54h0a13.42,13.42,0,0,1,7.79,2.53h0a13.39,13.39,0,0,1,2.55,2.44A19.7,19.7,0,0,1,37,9.5c.33,0,.67,0,1,0a18.42,18.42,0,0,0-1.24-2,18.18,18.18,0,0,0-4.06-4.06A18.48,18.48,0,0,0,21.94,0h0A18.36,18.36,0,0,0,4.47,12.7h0A17.45,17.45,0,0,0,3.74,16,19.4,19.4,0,0,1,6.72,13.29Z"/><path class="cls-1" d="M9.34,22.47h0c-.05-.17-.11-.33-.15-.5a11.75,11.75,0,0,0-2,3.73h0a11.85,11.85,0,0,0-.55,2.81l.46.66a18.23,18.23,0,0,0,4.06,4.07h0a18.58,18.58,0,0,0,7.37,3.17c-.12-.31-.24-.62-.34-.94l-1.62-5a13.58,13.58,0,0,1-2.4-1.38h0a13.24,13.24,0,0,1-4.81-6.62Z"/><path class="cls-1" d="M15.26,20.71c.22-.18.45-.35.68-.52L20.3,17a12.84,12.84,0,0,1,.57-2.74h0a13.21,13.21,0,0,1,4.81-6.63h0l.43-.29a11.89,11.89,0,0,0-4.17-.77,12.2,12.2,0,0,0-2.84.34c-.17.21-.33.43-.49.65A18,18,0,0,0,16,12.69h0A18.45,18.45,0,0,0,15.26,20.71Z"/><path class="cls-1" d="M20.78,45.65A11.6,11.6,0,0,0,23.28,47l.78-.23a18.3,18.3,0,0,0,10.41-8.63q-.49,0-1,0H28.22a13.34,13.34,0,0,1-2,1.85h0a13.32,13.32,0,0,1-7.79,2.53h-.52A12,12,0,0,0,20.78,45.65Z"/><path class="cls-1" d="M38.92,32.47a12.44,12.44,0,0,0-.73-1.73,13.13,13.13,0,0,1-4.72.88H25.39L25.83,33a11.64,11.64,0,0,0,2,3.76h5.6a18.28,18.28,0,0,0,6-1A11.54,11.54,0,0,0,38.92,32.47Z"/><path class="cls-1" d="M17.83,29.67,19.56,35a18.71,18.71,0,0,0,2.83,5.4,11.76,11.76,0,0,0,2.89-1.53h0a12.64,12.64,0,0,0,1.42-1.23,13.34,13.34,0,0,1-2.3-4.22L22,25.78l-1.28.92A11.81,11.81,0,0,0,17.83,29.67Z"/><path class="cls-1" d="M12.54,25.73A11.74,11.74,0,0,0,14.91,28h0a10.82,10.82,0,0,0,1.6,1,13.48,13.48,0,0,1,3.3-3.48l6.68-4.86-1.18-.86A12.19,12.19,0,0,0,21.48,18l-4.68,3.4A18.76,18.76,0,0,0,12.54,25.73Z"/><path class="cls-1" d="M32,30.16h1.43a12,12,0,0,0,4.21-.78h0l1.74-5.32a18.48,18.48,0,0,0,.88-6A11.68,11.68,0,0,0,37,17.55a11.8,11.8,0,0,0-1.87.16,13.29,13.29,0,0,1-.63,4.76Z"/><path class="cls-1" d="M23.71,11.77a11.79,11.79,0,0,0-1.45,3v0a13.31,13.31,0,0,0-.42,1.79,13.57,13.57,0,0,1,4.34,2.07l6.54,4.75L33.15,22a11.8,11.8,0,0,0,.56-4.23v0l-4.53-3.29A18.49,18.49,0,0,0,23.71,11.77Z"/><path class="cls-1" d="M40.14,40.7a11.69,11.69,0,0,0,5.92-3.78c0-.27,0-.54,0-.8a18.19,18.19,0,0,0-.9-5.68,18.42,18.42,0,0,0-4.09-6.9c-.08.32-.18.64-.28,1l-1.63,5A13.57,13.57,0,0,1,40.31,32a13.22,13.22,0,0,1,0,8.19C40.26,40.38,40.2,40.54,40.14,40.7Z"/><path class="cls-1" d="M49.63,33.43a13.07,13.07,0,0,1-4.81,6.62h0A13.32,13.32,0,0,1,37,42.59h0a13,13,0,0,1-3.5-.48A19.75,19.75,0,0,1,30,45.39c-.27.2-.55.39-.83.57a17.47,17.47,0,0,0,2.15.85,18.27,18.27,0,0,0,5.67.9h0A18.47,18.47,0,0,0,47.83,44.2,18.22,18.22,0,0,0,54.51,35h0a18.23,18.23,0,0,0,0-11.36,19.48,19.48,0,0,0-1.33-3.08,19.59,19.59,0,0,1-2.9,8.32,13,13,0,0,1-.65,4.53Z"/><path class="cls-1" d="M37,11a18.46,18.46,0,0,0-7.66,1.69c.26.17.52.34.76.52l4.37,3.17A12.62,12.62,0,0,1,37,16.09a13.3,13.3,0,0,1,4.09.65,13,13,0,0,1,3.69,1.88l.42.31a11.77,11.77,0,0,0-1.77-6.8l-.76-.26A18.28,18.28,0,0,0,37,11Z"/><path class="cls-2" d="M68.72,16.35v19h4v2.25H66.29V16.35Z"/><path class="cls-2" d="M78.7,37.79h-.91c-2.64,0-4-1.31-4-3.95V20.12c0-2.64,1.31-3.95,4-3.95h.91c2.65,0,4,1.31,4,3.95V33.84C82.65,36.48,81.35,37.79,78.7,37.79Zm-.09-19.4h-.73A1.41,1.41,0,0,0,76.27,20V34a1.41,1.41,0,0,0,1.61,1.61h.73A1.4,1.4,0,0,0,80.22,34V20A1.4,1.4,0,0,0,78.61,18.39Z"/><path class="cls-2" d="M84.9,16.35h4c3.19,0,4.71,1.52,4.71,4.71V32.9c0,3.19-1.52,4.71-4.71,4.71h-4Zm2.42,19h1.46c1.64,0,2.4-.82,2.4-2.46V21c0-1.64-.76-2.46-2.4-2.46H87.32Z"/><path class="cls-2" d="M105.51,27.28a.76.76,0,0,1-.82-.85V24.61a1.62,1.62,0,0,0-1.82-1.85h-.43a1.62,1.62,0,0,0-1.82,1.85V34.3a1.6,1.6,0,0,0,1.82,1.82h.46a1.6,1.6,0,0,0,1.82-1.82V31.93a.75.75,0,0,1,.82-.82h.06a.76.76,0,0,1,.85.82v2.31c0,2.34-1.18,3.55-3.52,3.55h-.52c-2.37,0-3.55-1.21-3.55-3.55V24.67q0-3.55,3.55-3.55h.52c2.34,0,3.49,1.18,3.49,3.49v1.82a.77.77,0,0,1-.85.85Z"/><path class="cls-2" d="M110.58,36.82a.77.77,0,0,1-.85.85h-.06a.76.76,0,0,1-.82-.85v-20a.76.76,0,0,1,.82-.85h.06a.77.77,0,0,1,.85.85v5.74a4.16,4.16,0,0,1,3-1.46,2.48,2.48,0,0,1,2.8,2.79V36.82a.75.75,0,0,1-.82.85h-.06a.74.74,0,0,1-.85-.85V24.25c0-1.07-.55-1.52-1.43-1.52a4.08,4.08,0,0,0-2.67,1.37Z"/><path class="cls-2" d="M124.3,36.42a4.17,4.17,0,0,1-3,1.37,2.37,2.37,0,0,1-2.67-2.7v-3c0-1.88.64-2.7,2.43-3.34l3.22-1.18v-3c0-1.12-.58-1.73-1.88-1.73s-1.89.61-1.89,1.73v1.4a.66.66,0,0,1-.75.76h-.22a.65.65,0,0,1-.73-.73V24.55c0-2.28,1.19-3.43,3.62-3.43S126,22.27,126,24.55V36.82c0,.58-.27.85-.82.85h-.06a.74.74,0,0,1-.85-.85Zm-2.52-.24h.06a3.93,3.93,0,0,0,2.46-1.27V29.14l-2.49.94a1.83,1.83,0,0,0-1.4,2v2.67C120.41,35.73,120.9,36.18,121.78,36.18Z"/><path class="cls-2" d="M129.43,37.67a.77.77,0,0,1-.85-.85v-20a.77.77,0,0,1,.85-.85h.06a.77.77,0,0,1,.85.85v20a.77.77,0,0,1-.85.85Z"/><path class="cls-2" d="M133.86,37.67a.77.77,0,0,1-.85-.85v-20a.77.77,0,0,1,.85-.85h.06a.77.77,0,0,1,.85.85v20a.77.77,0,0,1-.85.85Z"/><path class="cls-2" d="M144.76,34.24c0,2.34-1.21,3.55-3.55,3.55h-.43c-2.37,0-3.55-1.21-3.55-3.55V24.67c0-2.34,1.18-3.55,3.55-3.55h.43c2.34,0,3.55,1.21,3.55,3.55v4.47a.91.91,0,0,1-1,1H139V34.3a1.62,1.62,0,0,0,1.85,1.82h.37a1.63,1.63,0,0,0,1.85-1.82V33.14a.75.75,0,0,1,.82-.82h.06a.75.75,0,0,1,.82.82ZM139,24.61v3.86h4V24.61a1.63,1.63,0,0,0-1.82-1.85h-.34A1.64,1.64,0,0,0,139,24.61Z"/><path class="cls-2" d="M148,37.67H148c-.55,0-.82-.27-.82-.85V22a.71.71,0,0,1,.82-.79H148c.54,0,.85.27.85.79v.55a4.05,4.05,0,0,1,3-1.46,2.47,2.47,0,0,1,2.8,2.79V36.82a.75.75,0,0,1-.82.85h-.06a.74.74,0,0,1-.85-.85V24.25c0-1.1-.55-1.52-1.43-1.52a3.9,3.9,0,0,0-2.67,1.37V36.82A.76.76,0,0,1,148,37.67Z"/><path class="cls-2" d="M162.94,22.52v-.46a.73.73,0,0,1,.82-.82h.06c.58,0,.85.27.85.82V37.82c0,2.22-1.06,3.25-3.34,3.25h-1.06c-2.12,0-3.13-.94-3.13-3V38c0-.51.28-.73.76-.73H158c.49,0,.76.25.76.67v.12c0,.94.43,1.46,1.58,1.46h1.07A1.33,1.33,0,0,0,162.91,38V34.72a4.24,4.24,0,0,1-3,1.4,2.65,2.65,0,0,1-2.89-3v-9c0-1.89.94-3,2.89-3A4.06,4.06,0,0,1,162.94,22.52Zm-2.67.21a1.37,1.37,0,0,0-1.49,1.58V33a1.37,1.37,0,0,0,1.52,1.52,3.92,3.92,0,0,0,2.64-1.31v-9A4.1,4.1,0,0,0,160.27,22.73Z"/><path class="cls-2" d="M174.54,34.24c0,2.34-1.21,3.55-3.55,3.55h-.43c-2.37,0-3.55-1.21-3.55-3.55V24.67c0-2.34,1.18-3.55,3.55-3.55H171c2.34,0,3.55,1.21,3.55,3.55v4.47a.91.91,0,0,1-1,1h-4.77V34.3a1.62,1.62,0,0,0,1.85,1.82H171a1.63,1.63,0,0,0,1.85-1.82V33.14a.75.75,0,0,1,.82-.82h.06a.75.75,0,0,1,.82.82Zm-5.77-9.63v3.86h4V24.61A1.63,1.63,0,0,0,171,22.76h-.34A1.64,1.64,0,0,0,168.77,24.61Z"/><path class="cls-2" d="M185.61,25.54a3.18,3.18,0,0,0,.93-2.28V20.08c0-1.08-.51-1.59-1.53-1.59h-.48c-1,0-1.53.51-1.53,1.59v4h-2.34V20.2c0-2.61,1.29-3.9,3.84-3.9h.6c2.55,0,3.84,1.29,3.84,3.9v2.7A5.77,5.77,0,0,1,187.38,27L184,31.24A3.58,3.58,0,0,0,183,34v1.23h5.94v2.22H180.6v-3.6a5.77,5.77,0,0,1,1.62-4.08Z"/><path class="cls-2" d="M195.6,37.66h-.79c-2.6,0-3.89-1.29-3.89-3.9V20.2c0-2.61,1.29-3.9,3.89-3.9h.79c2.61,0,3.89,1.29,3.89,3.9V33.76C199.49,36.37,198.21,37.66,195.6,37.66Zm-.06-19.17h-.66a1.39,1.39,0,0,0-1.59,1.59v13.8a1.39,1.39,0,0,0,1.59,1.59h.66a1.39,1.39,0,0,0,1.59-1.59V20.08A1.39,1.39,0,0,0,195.54,18.49Z"/><path class="cls-2" d="M205.07,37.48h-2.28V20.23h-2V18.37l.25,0a3.15,3.15,0,0,0,2.42-1.47l.36-.48h1.23Z"/><path class="cls-2" d="M213.5,33.88V28.54a5.19,5.19,0,0,1-2.49.63h-.09a3.21,3.21,0,0,1-3.39-3.48V20.2c0-2.61,1.29-3.9,3.9-3.9H212c2.61,0,3.9,1.29,3.9,3.9V33.76c0,2.61-1.29,3.9-3.9,3.9h-.57c-2.64,0-3.84-1.14-3.84-3.78V31.21h2.31v2.67c0,1.08.51,1.59,1.53,1.59H212C213,35.47,213.5,35,213.5,33.88Zm0-13.8c0-1.08-.51-1.59-1.53-1.59h-.57c-1,0-1.53.51-1.53,1.59v5.16c0,1.2.57,1.71,1.59,1.71a5.12,5.12,0,0,0,2-.45Z"/></g></g></svg>