<svg xmlns="http://www.w3.org/2000/svg" width="100.414" height="100.414" viewBox="0 0 100.414 100.414">
  <g id="_2020_mini_logo_application" data-name="2020_mini_logo_application" transform="translate(-160.014 -642.508)">
    <path id="パス_37" data-name="パス 37" d="M260.428,692.715a50.207,50.207,0,1,1-50.208-50.207A50.208,50.208,0,0,1,260.428,692.715Z" transform="translate(0)" fill="#c40013"/>
    <path id="パス_38" data-name="パス 38" d="M231,695.647c-.212,0-.422.008-.631.02-2.756-1.634-6.055-4.588-10.056-11.517-3.721-6.445-4.767-10.644-4.925-13.777a10.725,10.725,0,1,0-18.041-.833c.167.286.349.56.539.829-.157,3.133-1.2,7.333-4.926,13.781-4,6.929-7.3,9.883-10.056,11.517-.208-.012-.418-.02-.631-.02a10.727,10.727,0,1,0,9.584,15.535c2.793-1.571,7-2.953,15.006-2.953,7.442,0,11.6,1.195,14.392,2.624A10.726,10.726,0,1,0,231,695.647Zm-31.935-33.5a7.844,7.844,0,0,1,7.564-5.811,7.84,7.84,0,1,1-6.78,11.759A7.787,7.787,0,0,1,199.063,662.147Zm-24.631,44.227a7.839,7.839,0,1,1,7.839,7.839A7.847,7.847,0,0,1,174.432,706.374Zm17.423-4.809a10.8,10.8,0,0,0-.627-1.082c.035-3.2.939-7.538,4.946-14.476,3.721-6.447,6.835-9.452,9.47-11.155.33.031.663.054,1,.054s.657-.021.983-.052c2.635,1.7,5.748,4.709,9.468,11.154,4.007,6.94,4.91,11.272,4.944,14.476a10.625,10.625,0,0,0-.784,1.409c-2.791,1.43-6.948,2.625-14.393,2.625C198.855,704.517,194.647,703.137,191.856,701.565ZM231,714.213a7.839,7.839,0,1,1,7.838-7.839A7.848,7.848,0,0,1,231,714.213Z" transform="translate(3.587 3.404)" fill="#fff"/>
  </g>
</svg>
