<svg xmlns="http://www.w3.org/2000/svg" width="100" height="100" viewBox="0 0 100 100">
  <g id="_2020_mini_logo_dataset" data-name="2020_mini_logo_dataset" transform="translate(-257.28 -640.532)">
    <circle id="楕円形_2" data-name="楕円形 2" cx="50" cy="50" r="50" transform="translate(257.28 640.532)" fill="#c40013"/>
    <path id="パス_36" data-name="パス 36" d="M333.544,688.174a.4.4,0,0,0-.02-.064,1.281,1.281,0,0,0-.086-.212.233.233,0,0,0-.016-.038l-5.645-9.878a6.778,6.778,0,0,0-9.274-9.341c-.115.069-.225.142-.334.217-2.025.01-4.774-.518-9.2-2.971-4.112-2.282-6.044-4.219-7.149-5.864a6.779,6.779,0,1,0-10.047,5.415c.183.1.371.191.561.275.923,1.729,1.714,4.31,1.81,8.915H281.88a1.212,1.212,0,0,0-.287.038.739.739,0,0,0-.076.023,1.063,1.063,0,0,0-.2.081l-.07.039a1.22,1.22,0,0,0-.222.17l0,0a1.355,1.355,0,0,0-.17.225.224.224,0,0,1-.02.026l-7.214,12.626c-.007.013-.009.027-.017.041a1.225,1.225,0,0,0-.085.206c-.007.023-.014.046-.021.069a1.235,1.235,0,0,0-.037.281v27.052a1.2,1.2,0,0,0,1.2,1.2H332.38a1.2,1.2,0,0,0,1.2-1.2V688.457A1.2,1.2,0,0,0,333.544,688.174Zm-50.463-11.139h11.042a16.21,16.21,0,0,1-1.675,7.26c-.118.061-.235.128-.35.2a6.708,6.708,0,0,0-2.555,2.762h-6.462Zm9.957,9.02a4.959,4.959,0,0,1,6.449,1.2h-7.8A4.924,4.924,0,0,1,293.039,686.054Zm3.567-9.02h17.237a24.673,24.673,0,0,1-5.532,4.263c-4.339,2.6-7.069,3.224-9.093,3.283a6.867,6.867,0,0,0-.691-.383A16.143,16.143,0,0,1,296.606,677.034Zm12.912,6.278c4.032-2.422,6.674-3.126,8.652-3.262a6.809,6.809,0,0,0,5.792.888v6.314H304.291A25.91,25.91,0,0,1,309.518,683.313Zm16.848-2.952,3.941,6.893h-3.941Zm-6.922-10.153a4.954,4.954,0,1,1-1.7,6.8A4.959,4.959,0,0,1,319.444,670.207ZM290.3,660.874a4.955,4.955,0,1,1,9.1,1.043,4.95,4.95,0,0,1-6.736,1.925A4.918,4.918,0,0,1,290.3,660.874Zm7.7,4.746c.189-.093.377-.189.559-.3s.35-.227.517-.35c1.981.067,4.646.684,8.759,2.967,4.428,2.456,6.326,4.509,7.385,6.237-.005.149-.005.3,0,.452H296.5C296.431,670,297.135,667.384,298,665.62Zm-17.326,14.74v6.893h-3.939Zm50.5,33.946H275.867V689.658h55.309Z" transform="translate(4.947 3.73)" fill="#fff"/>
  </g>
</svg>
