<svg xmlns="http://www.w3.org/2000/svg" width="375.968" height="407.146" viewBox="0 0 375.968 407.146">
  <g id="_2020_logo_v" data-name="2020_logo_v" transform="translate(-288.089 -46.529)">
    <g id="グループ_11" data-name="グループ 11" transform="translate(380.787 46.529)">
      <path id="パス_41" data-name="パス 41" d="M419.88,72.856a45.224,45.224,0,0,1,16.552,22.772h0a46.012,46.012,0,0,1,.01,28.164,45.07,45.07,0,0,1-5.264,10.927,67.685,67.685,0,0,1,6.979,14.932c.359,1.1.684,2.217.982,3.333a65.512,65.512,0,0,0,5.073-6.135,62.734,62.734,0,0,0,8.982-17.6,63.735,63.735,0,0,0,0-39.049h0a62.729,62.729,0,0,0-22.956-31.6h0a62.782,62.782,0,0,0-37.085-12.065H393.1a63.627,63.627,0,0,0-11.469,1.085,67.159,67.159,0,0,1,24.119,18.314,45.544,45.544,0,0,1,14.132,6.929Z" transform="translate(-277.991 -46.529)" fill="#c40013"/>
      <path id="パス_42" data-name="パス 42" d="M442.808,154.782a67.561,67.561,0,0,1-16.571-2.074,45.644,45.644,0,0,1-42.284-5.98,46.065,46.065,0,0,1-16.569-22.782,45.426,45.426,0,0,1-2.16-11.937,67.445,67.445,0,0,1-14.082-7.724l-.01-.006-.3-.214a.112.112,0,0,0-.042-.027l-.319-.243c-.827-.6-1.629-1.224-2.426-1.874a64.883,64.883,0,0,0-.5,7.94,63.126,63.126,0,0,0,3.079,19.529h0a63.717,63.717,0,0,0,22.956,31.583,63.008,63.008,0,0,0,82.928-7.611,67.527,67.527,0,0,1-13.7,1.421Z" transform="translate(-315.444 14.343)" fill="#c40013"/>
      <path id="パス_43" data-name="パス 43" d="M335.368,146.62a62.645,62.645,0,0,0,22.961,31.587h0a61.824,61.824,0,0,0,9.905,5.871,67.312,67.312,0,0,1-8.744-29,45.566,45.566,0,0,1-7.365-13.912h0a45.245,45.245,0,0,1,0-28.149h0a46,46,0,0,1,16.546-22.8h0a45.787,45.787,0,0,1,10.684-5.745A67.741,67.741,0,0,1,382.473,68.3c.365-1.106.762-2.191,1.171-3.272a62.2,62.2,0,0,0-7.716,1.981,63.128,63.128,0,0,0-17.612,8.963h0a63.736,63.736,0,0,0-22.948,31.59,62.766,62.766,0,0,0,0,39.058Z" transform="translate(-332.253 -26.198)" fill="#c40013"/>
      <path id="パス_44" data-name="パス 44" d="M348.627,92.23a67.717,67.717,0,0,1,14.623-8.071,45.652,45.652,0,0,1,37.687-20.007h.04a45.96,45.96,0,0,1,26.789,8.7h0a45.641,45.641,0,0,1,8.765,8.375A68.068,68.068,0,0,1,452.887,79.2c1.161,0,2.315.042,3.467.107a63.093,63.093,0,0,0-55.367-32.775h-.05A63.168,63.168,0,0,0,340.893,90.2h0a63.04,63.04,0,0,0-2.512,11.238A67.2,67.2,0,0,1,348.627,92.23Z" transform="translate(-325.523 -46.529)" fill="#c40013"/>
      <path id="パス_45" data-name="パス 45" d="M352.45,84.231h0c-.183-.567-.359-1.136-.516-1.7A40.751,40.751,0,0,0,344.99,95.35h0a40.51,40.51,0,0,0-1.891,9.662c.51.766,1.033,1.528,1.576,2.277a63.319,63.319,0,0,0,13.971,13.99h0a63.629,63.629,0,0,0,25.337,10.917c-.414-1.079-.8-2.151-1.161-3.237l-5.587-17.216a44.893,44.893,0,0,1-8.226-4.718h0A45.885,45.885,0,0,1,352.45,84.231Z" transform="translate(-320.333 -6.968)" fill="#c40013"/>
      <path id="パス_46" data-name="パス 46" d="M357.521,105.888q1.146-.923,2.344-1.788L374.848,93.21a44.688,44.688,0,0,1,1.969-9.435h0a45.6,45.6,0,0,1,16.559-22.789h0c.481-.355.968-.695,1.467-1.022a41.166,41.166,0,0,0-14.349-2.643,40.558,40.558,0,0,0-9.773,1.194c-.577.72-1.135,1.459-1.675,2.2a62.931,62.931,0,0,0-8.988,17.606h0A63.491,63.491,0,0,0,357.521,105.888Z" transform="translate(-305.048 -34.668)" fill="#c40013"/>
      <path id="パス_47" data-name="パス 47" d="M371.57,134.776a40.686,40.686,0,0,0,8.6,4.786c.9-.252,1.778-.518,2.659-.8a62.877,62.877,0,0,0,35.829-29.669c-1.148.055-2.288.088-3.436.088H397.129a45.073,45.073,0,0,1-7.042,6.368h0a45.844,45.844,0,0,1-26.787,8.7h-.013c-.59,0-1.186-.021-1.774-.038A40.826,40.826,0,0,0,371.57,134.776Z" transform="translate(-300.095 22.223)" fill="#c40013"/>
      <path id="パス_48" data-name="パス 48" d="M420.381,102.843a40.4,40.4,0,0,0-2.487-5.942,45.841,45.841,0,0,1-16.238,3.018H373.847l1.518,4.67a40.926,40.926,0,0,0,7.036,12.949h19.26a63.358,63.358,0,0,0,20.664-3.514A40.444,40.444,0,0,0,420.381,102.843Z" transform="translate(-286.542 8.828)" fill="#c40013"/>
      <path id="パス_49" data-name="パス 49" d="M361.458,102.152l5.974,18.385a63.656,63.656,0,0,0,9.729,18.576,40.488,40.488,0,0,0,9.945-5.243l.09-.061a40.26,40.26,0,0,0,4.876-4.208,46.018,46.018,0,0,1-7.884-14.512l-8.549-26.325-4.385,3.18A40.56,40.56,0,0,0,361.458,102.152Z" transform="translate(-300.157 -0.115)" fill="#c40013"/>
      <path id="パス_50" data-name="パス 50" d="M352.8,102.662a40.442,40.442,0,0,0,8.148,7.894h0a39.215,39.215,0,0,0,5.5,3.35,45.779,45.779,0,0,1,11.368-11.985l22.961-16.687-4.07-2.96a40.822,40.822,0,0,0-13.161-6.3L367.45,87.669A63.379,63.379,0,0,0,352.8,102.662Z" transform="translate(-309.675 -14.165)" fill="#c40013"/>
      <path id="パス_51" data-name="パス 51" d="M384.752,118.636h4.92a40.511,40.511,0,0,0,14.451-2.685l.031-.008,5.953-18.316a63.651,63.651,0,0,0,3.048-20.736,41.039,41.039,0,0,0-11.234-1.61,40.168,40.168,0,0,0-6.425.546,45.832,45.832,0,0,1-2.151,16.366Z" transform="translate(-274.557 -14.93)" fill="#c40013"/>
      <path id="パス_52" data-name="パス 52" d="M374.5,65.813A40.472,40.472,0,0,0,369.5,76l-.036.115a39.817,39.817,0,0,0-1.442,6.154,46.047,46.047,0,0,1,14.911,7.1l22.5,16.345,1.522-4.672a40.752,40.752,0,0,0,1.91-14.563v-.048l-15.579-11.32A63.548,63.548,0,0,0,374.5,65.813Z" transform="translate(-292.944 -25.336)" fill="#c40013"/>
      <path id="パス_53" data-name="パス 53" d="M399.741,144.112a40.781,40.781,0,0,0,13.158-6.3,40.354,40.354,0,0,0,7.2-6.706c.04-.917.063-1.841.063-2.764A62.8,62.8,0,0,0,403.009,85.1c-.288,1.1-.617,2.191-.964,3.285l-5.6,17.205a45.563,45.563,0,0,1,3.877,36.831C400.142,143,399.943,143.556,399.741,144.112Z" transform="translate(-261.702 -4.136)" fill="#c40013"/>
      <path id="パス_54" data-name="パス 54" d="M450.362,124.436a45.216,45.216,0,0,1-16.55,22.776h0a45.981,45.981,0,0,1-26.774,8.723h-.008a45.027,45.027,0,0,1-12.021-1.639,67.5,67.5,0,0,1-12.042,11.265q-1.407,1.011-2.861,1.946a61.162,61.162,0,0,0,7.4,2.936,62.879,62.879,0,0,0,19.52,3.111h.013a63.681,63.681,0,0,0,37.12-12.082,62.645,62.645,0,0,0,22.961-31.587h0a62.816,62.816,0,0,0-4.574-49.628,67.265,67.265,0,0,1-9.968,28.6,45.458,45.458,0,0,1-2.214,15.579Z" transform="translate(-279.664 -9.463)" fill="#c40013"/>
      <path id="パス_55" data-name="パス 55" d="M406.714,64.494a63.579,63.579,0,0,0-26.323,5.781c.886.588,1.769,1.182,2.628,1.8l14.993,10.894a44.424,44.424,0,0,1,8.7-.861,45.7,45.7,0,0,1,26.783,8.7c.487.357.963.714,1.427,1.085A40.931,40.931,0,0,0,433,77.438a40.2,40.2,0,0,0-4.154-8.925q-1.3-.494-2.611-.915a62.9,62.9,0,0,0-19.514-3.1h-.008Z" transform="translate(-279.35 -26.786)" fill="#c40013"/>
    </g>
    <g id="グループ_12" data-name="グループ 12" transform="translate(362.328 420.818)">
      <path id="パス_56" data-name="パス 56" d="M323.458,247.528v-.94c3.73-.235,3.931-.4,3.931-2.924v-12.9c0-1.715-.235-1.782-1.713-1.916l-1.648-.168v-.84a27.688,27.688,0,0,0,6.148-1.646v17.47c0,2.554.2,2.689,3.967,2.924v.94Z" transform="translate(-323.458 -223.371)" fill="#1a1311"/>
      <path id="パス_57" data-name="パス 57" d="M337.344,226.194c5.04,0,6.922,5.644,6.922,10.852,0,4.905-1.883,10.885-6.922,10.885-5.14,0-7.023-5.543-7.023-10.852C330.321,232.174,332.237,226.194,337.344,226.194Zm0,1.175c-3.123,0-3.9,4.939-3.9,9.643s.94,9.743,3.9,9.743c3.023,0,3.831-5.006,3.831-9.71C341.175,232.308,340.335,227.369,337.344,227.369Z" transform="translate(-315.916 -223.371)" fill="#1a1311"/>
      <path id="パス_58" data-name="パス 58" d="M344.951,246.686a3.4,3.4,0,0,1-1.446.437c-2.149,0-3.291-1.31-3.291-4v-9.777h-2.319l-.132-.4.9-.974h1.547v-2.823c.638-.67,1.612-1.545,2.25-2.217l.5.067c-.067,1.41-.1,3.36-.1,4.972H346.7a1.052,1.052,0,0,1-.2,1.377h-3.629v8.6c0,2.72,1.075,3.226,1.95,3.226a4.8,4.8,0,0,0,2.049-.537l.3.873Z" transform="translate(-307.738 -222.562)" fill="#1a1311"/>
      <path id="パス_59" data-name="パス 59" d="M352.4,249.006v-.94c1.948-.2,2.216-.369,2.216-2.588v-5.51c0-2.787-1.075-4.2-3.325-4.166a4.8,4.8,0,0,0-3.562,1.748v7.928c0,2.185.269,2.384,2.286,2.588v.94h-7.325v-.94c1.948-.168,2.384-.336,2.384-2.588V229.284c0-1.78-.1-2.217-2.351-2.418v-.873a20.886,20.886,0,0,0,5.006-1.144v11.458a7.581,7.581,0,0,1,4.872-2.454c2.756,0,4.67,1.715,4.67,5.745v5.913c0,2.219.269,2.387,2.216,2.554v.94Z" transform="translate(-302.324 -224.849)" fill="#1a1311"/>
      <path id="パス_60" data-name="パス 60" d="M368.179,248.039v-.94c2.183-.269,2.452-.6,1.981-1.883-.437-1.31-1.108-2.989-1.814-5.1h-7.256c-.539,1.511-1.043,2.821-1.513,4.2-.739,2.185-.269,2.454,2.487,2.79v.94H354.3v-.94c2.114-.269,2.653-.506,3.829-3.528l6.954-17.638,1.077-.2c2.116,5.747,4.433,12.1,6.551,17.908,1.075,2.924,1.377,3.193,3.761,3.461v.94Zm-3.361-17.906c-1.075,2.888-2.216,5.946-3.226,8.6h6.284Z" transform="translate(-289.558 -223.882)" fill="#1a1311"/>
      <path id="パス_61" data-name="パス 61" d="M374.751,244.344v-.94c1.948-.2,2.149-.437,2.149-2.722v-5.543c0-2.351-.84-3.929-3.058-3.929a5.857,5.857,0,0,0-3.728,1.746v7.861c0,2.319.2,2.384,2.183,2.588v.94h-7.256v-.94c2.219-.235,2.418-.369,2.418-2.588V233.9c0-2.185-.235-2.284-2.049-2.588v-.873a19.1,19.1,0,0,0,4.7-1.343v2.653c.672-.47,1.411-.974,2.284-1.545a5.155,5.155,0,0,1,2.79-1.008c2.687,0,4.368,1.981,4.368,5.241v6.383c0,2.286.2,2.384,2.149,2.588v.94Z" transform="translate(-277.759 -220.187)" fill="#1a1311"/>
      <path id="パス_62" data-name="パス 62" d="M383.6,244.344v-.94c1.946-.2,2.149-.437,2.149-2.722v-5.543c0-2.351-.84-3.929-3.058-3.929a5.857,5.857,0,0,0-3.728,1.746v7.861c0,2.319.2,2.384,2.183,2.588v.94h-7.256v-.94c2.216-.235,2.418-.369,2.418-2.588V233.9c0-2.185-.235-2.284-2.051-2.588v-.873a19.091,19.091,0,0,0,4.706-1.343v2.653c.672-.47,1.41-.974,2.284-1.545a5.155,5.155,0,0,1,2.789-1.008c2.687,0,4.368,1.981,4.368,5.241v6.383c0,2.286.2,2.384,2.149,2.588v.94Z" transform="translate(-268.036 -220.187)" fill="#1a1311"/>
      <path id="パス_63" data-name="パス 63" d="M382.752,247.95v-.94c2.118-.2,2.353-.369,2.353-2.655v-6.92c0-2.084-.1-2.216-2.118-2.554v-.806a22.007,22.007,0,0,0,4.771-1.343v11.624c0,2.286.235,2.452,2.42,2.655v.94Zm3.495-18.511a1.841,1.841,0,0,1-1.782-1.782,1.815,1.815,0,0,1,1.816-1.847,1.753,1.753,0,0,1,1.713,1.847A1.787,1.787,0,0,1,386.247,229.439Z" transform="translate(-258.296 -223.793)" fill="#1a1311"/>
      <path id="パス_64" data-name="パス 64" d="M402.557,230.238c-1.814.235-2.051.5-2.924,2.521-1.108,2.687-3.023,7.155-4.769,11.691h-.976c-1.411-3.864-3.056-7.861-4.637-11.792-.772-1.95-1.041-2.151-2.787-2.42v-.907h6.853v.907c-1.847.235-1.916.47-1.377,1.916.84,2.317,2.252,5.879,3.193,8.23,1.209-2.989,2.317-5.745,3.056-7.9.571-1.646.47-2.015-1.746-2.25v-.907h6.114Z" transform="translate(-254.216 -219.923)" fill="#1a1311"/>
      <path id="パス_65" data-name="パス 65" d="M406.58,241.437c-2.149,2.687-4.5,3.258-5.577,3.258-4.1,0-6.587-3.36-6.587-7.225a8.624,8.624,0,0,1,2.183-5.877,6.893,6.893,0,0,1,5.008-2.454,5.239,5.239,0,0,1,5.138,5.208c-.034.672-.132.974-.67,1.108-.674.134-4.973.437-8.973.571-.1,4.5,2.655,6.349,5.042,6.349a5.679,5.679,0,0,0,3.9-1.713ZM400.8,230.415c-1.545,0-3.056,1.446-3.528,4.166,1.883,0,3.763,0,5.747-.1.6,0,.8-.168.8-.672A3.122,3.122,0,0,0,400.8,230.415Z" transform="translate(-245.477 -220.134)" fill="#1a1311"/>
      <path id="パス_66" data-name="パス 66" d="M408.974,244.344h-7.726v-.94c2.116-.2,2.319-.369,2.319-2.554v-6.987c0-2.217-.136-2.319-2.086-2.554v-.84a18.554,18.554,0,0,0,4.737-1.377v3.7c1.178-1.746,2.59-3.6,4.267-3.6a1.735,1.735,0,0,1,1.95,1.612,2.261,2.261,0,0,1-1.144,1.849.663.663,0,0,1-.873-.067,2.119,2.119,0,0,0-1.511-.842c-.7,0-1.948,1.043-2.689,2.756v6.316c0,2.219.168,2.384,2.756,2.588Z" transform="translate(-237.969 -220.187)" fill="#1a1311"/>
      <path id="パス_67" data-name="パス 67" d="M415.829,233.541c-.6-1.948-1.48-3.293-3.528-3.293a2.04,2.04,0,0,0-2.084,2.185c0,1.444.976,2.116,2.857,2.989,2.888,1.379,4.334,2.387,4.334,4.6,0,3.092-2.823,4.67-5.476,4.67a8.783,8.783,0,0,1-4-.94c-.168-.974-.47-2.823-.6-3.931l.974-.168c.6,2.149,1.782,3.9,4.133,3.9a2.241,2.241,0,0,0,2.351-2.286c0-1.511-.907-2.284-2.687-3.157-2.353-1.142-4.267-2.219-4.267-4.637,0-2.454,2.084-4.334,5.241-4.334a17.338,17.338,0,0,1,3.226.437c.1.806.336,2.924.5,3.73Z" transform="translate(-231.287 -220.134)" fill="#1a1311"/>
      <path id="パス_68" data-name="パス 68" d="M423.812,244.694a2.455,2.455,0,0,1-1.578-.638,3.163,3.163,0,0,1-.808-1.513c-1.343.909-2.989,2.151-4.032,2.151a4.121,4.121,0,0,1-4.1-4.133c0-1.646.907-2.72,2.754-3.36a26.378,26.378,0,0,0,5.31-2.183v-.672c0-2.387-1.211-3.763-2.957-3.763a1.945,1.945,0,0,0-1.578.772,7.137,7.137,0,0,0-.909,2.185.935.935,0,0,1-.974.772,1.613,1.613,0,0,1-1.478-1.478c0-.47.437-.875,1.108-1.345a14.115,14.115,0,0,1,4.838-2.351,4.413,4.413,0,0,1,4.536,4.8v6.484c0,1.545.571,2.017,1.175,2.017a2.671,2.671,0,0,0,1.209-.372l.336.942Zm-2.452-8.5c-.741.369-2.353,1.077-3.127,1.413-1.276.571-2.049,1.209-2.049,2.452a2.445,2.445,0,0,0,2.418,2.588,4.483,4.483,0,0,0,2.758-1.209Z" transform="translate(-224.729 -220.134)" fill="#1a1311"/>
      <path id="パス_69" data-name="パス 69" d="M428.062,244.344h-7.726v-.94c2.116-.2,2.317-.369,2.317-2.554v-6.987c0-2.217-.134-2.319-2.084-2.554v-.84a18.58,18.58,0,0,0,4.737-1.377v3.7c1.178-1.746,2.588-3.6,4.267-3.6a1.735,1.735,0,0,1,1.95,1.612,2.261,2.261,0,0,1-1.144,1.849.663.663,0,0,1-.873-.067,2.122,2.122,0,0,0-1.511-.842c-.705,0-1.948,1.043-2.689,2.756v6.316c0,2.219.168,2.384,2.756,2.588Z" transform="translate(-216.992 -220.187)" fill="#1a1311"/>
      <path id="パス_70" data-name="パス 70" d="M441.744,230.238c-1.748.269-2.118.539-2.957,2.454-.84,1.881-1.746,4.166-4.066,10.012a92.927,92.927,0,0,0-3.327,9.2c-.2.705-.569.873-1.005.873a1.948,1.948,0,0,1-2.051-1.612c0-.437.235-.739.739-1.175a7.553,7.553,0,0,0,2.252-2.485c.705-1.413,1.209-2.588,1.377-3.025a1.966,1.966,0,0,0-.067-1.377c-1.31-3.831-3.123-7.963-4.133-10.382-.739-1.849-1.041-2.252-2.89-2.487v-.907H432.4v.907c-1.547.235-1.715.571-1.278,1.814l3.26,8.266c.94-2.317,2.286-6.047,2.991-8.163.4-1.278.168-1.648-1.782-1.916v-.907h6.15Z" transform="translate(-211.19 -219.923)" fill="#1a1311"/>
    </g>
    <g id="グループ_13" data-name="グループ 13" transform="translate(417.136 337.335)">
      <path id="パス_71" data-name="パス 71" d="M375.824,216.687c-.816,2.832-1.887,6.043-2.517,8.373H349.57v-1.511c3.461-3.4,7.239-7.116,10.327-10.7,3.965-4.658,7.743-9.7,7.743-15.173,0-5.226-2.771-8.249-7.367-8.249-4.345,0-7.053,3.4-8.688,5.856l-1.45-1.322,3.589-5.1a11.426,11.426,0,0,1,8.629-3.778c5.98,0,10.7,4.093,10.7,10.894,0,5.352-1.952,9.131-7.934,15.236-2.708,2.834-6.675,6.675-9.382,9.256h12.027c3.4,0,4.345-.315,6.484-4.282Z" transform="translate(-349.57 -185.076)" fill="#1a1311"/>
      <path id="パス_72" data-name="パス 72" d="M377.34,185.076c9.445,0,12.97,10.579,12.97,20.339,0,9.191-3.524,20.4-12.97,20.4-9.634,0-13.161-10.39-13.161-20.337C364.179,196.285,367.768,185.076,377.34,185.076Zm0,2.2c-5.854,0-7.3,9.256-7.3,18.072s1.763,18.259,7.3,18.259c5.667,0,7.178-9.38,7.178-18.2C384.518,196.536,382.944,187.28,377.34,187.28Z" transform="translate(-333.515 -185.076)" fill="#1a1311"/>
      <path id="パス_73" data-name="パス 73" d="M404.925,216.687c-.819,2.832-1.887,6.043-2.517,8.373H378.669v-1.511c3.463-3.4,7.241-7.116,10.327-10.7,3.967-4.658,7.745-9.7,7.745-15.173,0-5.226-2.773-8.249-7.367-8.249-4.345,0-7.053,3.4-8.69,5.856l-1.448-1.322,3.589-5.1a11.421,11.421,0,0,1,8.627-3.778c5.982,0,10.7,4.093,10.7,10.894,0,5.352-1.952,9.131-7.936,15.236-2.708,2.834-6.673,6.675-9.38,9.256h12.025c3.4,0,4.347-.315,6.486-4.282Z" transform="translate(-317.591 -185.076)" fill="#1a1311"/>
      <path id="パス_74" data-name="パス 74" d="M406.437,185.076c9.445,0,12.972,10.579,12.972,20.339,0,9.191-3.526,20.4-12.972,20.4-9.634,0-13.159-10.39-13.159-20.337C393.279,196.285,396.868,185.076,406.437,185.076Zm0,2.2c-5.854,0-7.3,9.256-7.3,18.072s1.763,18.259,7.3,18.259c5.667,0,7.178-9.38,7.178-18.2C413.616,196.536,412.042,187.28,406.437,187.28Z" transform="translate(-301.535 -185.076)" fill="#1a1311"/>
    </g>
    <g id="グループ_15" data-name="グループ 15" transform="translate(288.089 268.991)">
      <path id="パス_75" data-name="パス 75" d="M376.836,183.662c-2.806,3.7-7.076,6.5-10.9,6.5-8.094,0-12.873-6.563-12.873-13.383a15.129,15.129,0,0,1,6.438-12.493,16.866,16.866,0,0,1,9.687-3.633,9.453,9.453,0,0,1,5.927,1.721,2.012,2.012,0,0,1,1.02,1.849,3.215,3.215,0,0,1-2.294,2.867c-.319,0-.575-.126-1.213-.638a9.466,9.466,0,0,0-6.435-2.676c-4.206,0-7.9,3.57-7.9,10.2-.063,8.86,5.993,11.79,9.691,11.79,2.674,0,4.842-.7,7.775-3.505Z" transform="translate(-216.684 -143.572)" fill="#1a1311"/>
      <path id="パス_76" data-name="パス 76" d="M383.9,198.342v-1.784c3.694-.384,4.2-.7,4.2-4.909V181.2c0-5.289-2.038-7.968-6.307-7.9a9.1,9.1,0,0,0-6.757,3.316v15.039c0,4.143.51,4.525,4.332,4.909v1.784H365.479v-1.784c3.7-.319,4.523-.638,4.523-4.909V160.93c0-3.379-.189-4.206-4.46-4.59v-1.656a39.41,39.41,0,0,0,9.5-2.168V174.25c2.294-2.294,5.8-4.653,9.24-4.653,5.226,0,8.86,3.251,8.86,10.9v11.215c0,4.208.51,4.527,4.208,4.847v1.784Z" transform="translate(-203.04 -152.515)" fill="#1a1311"/>
      <path id="パス_77" data-name="パス 77" d="M402.58,190.162a4.657,4.657,0,0,1-2.993-1.209,5.983,5.983,0,0,1-1.53-2.871c-2.55,1.723-5.674,4.08-7.649,4.08a7.817,7.817,0,0,1-7.777-7.84c0-3.123,1.721-5.163,5.229-6.375,3.885-1.337,8.667-2.993,10.069-4.141v-1.274c0-4.525-2.294-7.139-5.608-7.139a3.693,3.693,0,0,0-3,1.467A13.632,13.632,0,0,0,387.6,169a1.774,1.774,0,0,1-1.849,1.465,3.064,3.064,0,0,1-2.8-2.8c0-.894.829-1.658,2.1-2.55a26.785,26.785,0,0,1,9.179-4.462,8.373,8.373,0,0,1,8.6,9.114v12.3c0,2.934,1.083,3.826,2.231,3.826a5.069,5.069,0,0,0,2.294-.7l.636,1.784Zm-4.651-16.124c-1.4.7-4.46,2.04-5.927,2.678-2.422,1.081-3.887,2.292-3.887,4.649a4.637,4.637,0,0,0,4.588,4.909,8.466,8.466,0,0,0,5.227-2.3Z" transform="translate(-184.19 -143.572)" fill="#1a1311"/>
      <path id="パス_78" data-name="パス 78" d="M395.534,198.342v-1.784c4.078-.384,4.586-.7,4.586-4.909V161.121c0-3.887-.317-4.271-4.4-4.781v-1.656a45.074,45.074,0,0,0,9.433-2.168v39.133c0,4.208.38,4.525,4.523,4.909v1.784Z" transform="translate(-170.01 -152.515)" fill="#1a1311"/>
      <path id="パス_79" data-name="パス 79" d="M403.426,198.342v-1.784c4.08-.384,4.588-.7,4.588-4.909V161.121c0-3.887-.317-4.271-4.4-4.781v-1.656a45.01,45.01,0,0,0,9.433-2.168v39.133c0,4.208.382,4.525,4.525,4.909v1.784Z" transform="translate(-161.337 -152.515)" fill="#1a1311"/>
      <path id="パス_80" data-name="パス 80" d="M435,183.979c-4.08,5.1-8.543,6.184-10.581,6.184-7.779,0-12.493-6.372-12.493-13.7a16.365,16.365,0,0,1,4.143-11.152,13.074,13.074,0,0,1,9.5-4.653,9.943,9.943,0,0,1,9.752,9.88c-.063,1.274-.254,1.849-1.274,2.1-1.276.254-9.435.829-17.018,1.083-.191,8.541,5.035,12.046,9.561,12.046a10.78,10.78,0,0,0,7.393-3.251Zm-10.965-20.9c-2.932,0-5.8,2.741-6.692,7.9,3.57,0,7.139,0,10.9-.193,1.146,0,1.528-.319,1.528-1.274C429.837,166.136,427.605,163.075,424.035,163.075Z" transform="translate(-151.996 -143.572)" fill="#1a1311"/>
      <path id="パス_81" data-name="パス 81" d="M443.246,189.5v-1.784c3.7-.384,4.08-.831,4.08-5.163V172.035c0-4.46-1.593-7.458-5.8-7.458-2.611,0-5.1,1.53-7.074,3.314V182.8c0,4.4.382,4.525,4.141,4.909V189.5H424.828v-1.784c4.206-.447,4.588-.7,4.588-4.909V169.678c0-4.143-.447-4.334-3.887-4.909v-1.656a36.182,36.182,0,0,0,8.923-2.55V165.6c1.274-.892,2.676-1.849,4.332-2.932a9.794,9.794,0,0,1,5.292-1.912c5.1,0,8.285,3.761,8.285,9.943V182.8c0,4.334.384,4.525,4.078,4.909V189.5Z" transform="translate(-137.817 -143.672)" fill="#1a1311"/>
      <path id="パス_82" data-name="パス 82" d="M450.8,180.194c-1.53,1.209-2.1,2.42-2.1,3.184,0,1.148,1.083,2.424,3.952,2.424,2.359,0,5.033-.065,7.139-.065,4.078,0,9.3,1.339,9.3,7.649,0,6.629-7.84,12.875-16.317,12.875-7.2,0-11.089-4.206-11.217-7.968a5.035,5.035,0,0,1,1.593-3.633,60.524,60.524,0,0,1,5.227-4.588,8.307,8.307,0,0,1-4.779-3.442,5.786,5.786,0,0,1-.764-2.739,13.509,13.509,0,0,0,5.862-4.4Zm3.06.636c-5.93,0-10.835-3.633-10.835-9.624,0-7.265,6.5-10.644,11.471-10.644a13.066,13.066,0,0,1,6.119,1.6,42.9,42.9,0,0,0,8.541-.957l.382.573a7.912,7.912,0,0,1-2.359,3.377c-.955,0-3.058-.254-3.948-.317a9.845,9.845,0,0,1,1.845,5.8C465.071,177.58,459.336,180.83,453.856,180.83Zm1.465,9.433c-3.123,0-4.525.382-5.671,1.337-1.786,1.467-3.06,3.379-3.06,5.229,0,3.505,3.631,6.118,8.541,6.118,6.056,0,9.5-3.125,9.5-7.2a4.789,4.789,0,0,0-2.8-4.651C460.228,190.39,458,190.262,455.321,190.262Zm-1.465-27.66c-2.869,0-5.417,2.613-5.417,7.649s2.548,8.539,6.053,8.539c2.8-.128,5.292-2.485,5.292-7.647C459.784,166.17,457.424,162.6,453.856,162.6Z" transform="translate(-119.435 -143.672)" fill="#1a1311"/>
      <path id="パス_83" data-name="パス 83" d="M479.137,183.979c-4.078,5.1-8.541,6.184-10.581,6.184-7.777,0-12.491-6.372-12.491-13.7a16.365,16.365,0,0,1,4.143-11.152,13.073,13.073,0,0,1,9.5-4.653,9.943,9.943,0,0,1,9.752,9.88c-.065,1.274-.254,1.849-1.276,2.1-1.274.254-9.433.829-17.016,1.083-.191,8.541,5.033,12.046,9.559,12.046a10.781,10.781,0,0,0,7.395-3.251Zm-10.963-20.9c-2.932,0-5.8,2.741-6.692,7.9,3.568,0,7.139,0,10.9-.193,1.144,0,1.528-.319,1.528-1.274C473.973,166.136,471.744,163.075,468.174,163.075Z" transform="translate(-103.488 -143.572)" fill="#1a1311"/>
      <g id="グループ_14" data-name="グループ 14" transform="translate(0 3.507)">
        <path id="パス_84" data-name="パス 84" d="M326.956,187.114c-.613,2.242-2.114,6.566-2.932,8.925H288.089v-1.784c5.8-.575,8.411-.894,8.411-6.312v-25.3c0-5.417-.638-5.736-5.739-6.247v-1.784h17.081V156.4c-5.1.51-5.8.766-5.8,6.247v25.939c0,3.887.512,4.779,4.143,4.842.063,0,8.851.065,9.231.065,3.251,0,4.668-.334,6.169-1.9a13.333,13.333,0,0,0,3.392-4.987Z" transform="translate(-288.089 -153.719)" fill="#1a1311"/>
        <path id="パス_85" data-name="パス 85" d="M328.148,154.186c10.9,0,20.65,8.348,20.65,21.032,0,13.7-9.3,22.245-21.032,22.245-12.237,0-21.16-9.307-21.16-21.29C306.606,164.765,314.7,154.186,328.148,154.186Z" transform="translate(-267.739 -154.186)" fill="#1a1311"/>
        <path id="パス_86" data-name="パス 86" d="M344.426,154.611c8.986,0,14.659,1.784,18.612,5.543a18.454,18.454,0,0,1,5.417,13.641c0,7.456-3.06,13.509-7.968,17.207-4.844,3.633-11.026,5.035-18.866,5.035H326.707v-1.784c5.48-.51,5.739-.957,5.739-6.181V162.642c0-5.48-.766-5.736-5.739-6.247v-1.784Zm-6.437,32.95c0,4.781,2.04,6.118,6.82,6.118,11.473,0,17.335-7.84,17.335-18.992,0-6.948-2.357-12.237-7.393-15.3-2.932-1.847-6.629-2.548-10.9-2.548-2.867,0-4.4.382-5.033.89-.575.384-.829,1.085-.829,3.57Z" transform="translate(-245.649 -153.719)" fill="#1a1311"/>
        <ellipse id="楕円形_3" data-name="楕円形 3" cx="14.875" cy="19.412" rx="14.875" ry="19.412" transform="translate(45.088 2.13)" fill="#fff"/>
      </g>
    </g>
  </g>
</svg>
