<svg xmlns="http://www.w3.org/2000/svg" width="100.414" height="100.414" viewBox="0 0 100.414 100.414">
  <g id="_2020_mini_logo_fandamental" data-name="2020_mini_logo_fandamental" transform="translate(-451.81 -640.532)">
    <path id="パス_32" data-name="パス 32" d="M552.224,690.739a50.207,50.207,0,1,1-50.207-50.207A50.206,50.206,0,0,1,552.224,690.739Z" fill="#c40013"/>
    <path id="パス_33" data-name="パス 33" d="M520.09,669.028a13.473,13.473,0,1,0-26.427-5.2,10.943,10.943,0,0,0-17.614,8.686,11.047,11.047,0,0,0,.121,1.555,13.479,13.479,0,0,0,.159,26.957h10.344v13.022h-6.278L492.948,726.6,505.5,714.047h-6.275V692.083h-6.276L505.5,679.53l12.551,12.553h-6.276v8.942h7.814a16,16,0,0,0,.5-32Z" transform="translate(3.434 3.745)" fill="#fff"/>
  </g>
</svg>
