<svg xmlns="http://www.w3.org/2000/svg" width="100.001" height="100" viewBox="0 0 100.001 100">
  <g id="_2020_mini_logo_visualisation" data-name="2020_mini_logo_visualisation" transform="translate(-354.544 -640.53)">
    <path id="パス_34" data-name="パス 34" d="M454.545,690.53a50,50,0,1,1-50-50A50,50,0,0,1,454.545,690.53Z" transform="translate(0 0)" fill="#c40013"/>
    <path id="パス_35" data-name="パス 35" d="M433.9,711.449l-10-28a1.333,1.333,0,0,0-1.256-.884h-2V653.9h-10v28.666h-5V661.894h-10v20.668h-5V671.9h-10v10.665h-2a1.336,1.336,0,0,0-1.257.884l-10,28a1.332,1.332,0,0,0,1.255,1.78h64a1.335,1.335,0,0,0,1.257-1.78Zm-63.367-.885,9.049-25.334h1.059V699.9h10V685.23h5V699.9h10V685.23h5V699.9h10V685.23h1.06l9.047,25.334Z" transform="translate(3.902 4.087)" fill="#fff"/>
  </g>
</svg>
