<svg xmlns="http://www.w3.org/2000/svg" width="308.285" height="62.101" viewBox="0 0 308.285 62.101">
  <g id="_2020_logo_h" data-name="2020_logo_h" transform="translate(-165.166 -297.345)">
    <g id="グループ_18" data-name="グループ 18">
      <g id="グループ_17" data-name="グループ 17">
        <path id="パス_87" data-name="パス 87" d="M206.425,305a13.152,13.152,0,0,1,4.812,6.621h0a13.384,13.384,0,0,1,0,8.191,13.158,13.158,0,0,1-1.53,3.176,19.7,19.7,0,0,1,2.029,4.342c.1.32.2.645.285.97a19.112,19.112,0,0,0,1.476-1.784,18.288,18.288,0,0,0,2.612-5.12,18.531,18.531,0,0,0,0-11.354h0a18.235,18.235,0,0,0-6.675-9.189h0a18.257,18.257,0,0,0-10.784-3.508h-.015a18.446,18.446,0,0,0-3.335.315,19.539,19.539,0,0,1,7.014,5.325,13.249,13.249,0,0,1,4.11,2.015Z" fill="#c40013"/>
        <path id="パス_88" data-name="パス 88" d="M202.2,346.522a19.669,19.669,0,0,1-4.819-.6,13.271,13.271,0,0,1-12.295-1.739,13.389,13.389,0,0,1-4.818-6.625,13.241,13.241,0,0,1-.629-3.471,19.587,19.587,0,0,1-4.094-2.246l0,0-.086-.063-.012-.007-.094-.071c-.24-.175-.473-.356-.705-.545a18.675,18.675,0,0,0-.145,2.309,18.376,18.376,0,0,0,.895,5.679h0a18.535,18.535,0,0,0,6.676,9.183,18.32,18.32,0,0,0,24.114-2.213,19.606,19.606,0,0,1-3.983.413Z" fill="#c40013"/>
        <path id="パス_89" data-name="パス 89" d="M166.071,332.361a18.22,18.22,0,0,0,6.677,9.185h0a18.022,18.022,0,0,0,2.881,1.707,19.56,19.56,0,0,1-2.543-8.432,13.219,13.219,0,0,1-2.142-4.045h0a13.146,13.146,0,0,1,0-8.185h0a13.36,13.36,0,0,1,4.812-6.629h0a13.27,13.27,0,0,1,3.106-1.671,19.682,19.682,0,0,1,.907-4.7c.106-.321.221-.637.34-.951a18,18,0,0,0-2.243.576,18.341,18.341,0,0,0-5.122,2.6h0A18.537,18.537,0,0,0,166.072,321a18.248,18.248,0,0,0,0,11.357Z" fill="#c40013"/>
        <path id="パス_90" data-name="パス 90" d="M171.884,310.634a19.763,19.763,0,0,1,4.251-2.348,13.28,13.28,0,0,1,10.959-5.817h.012A13.369,13.369,0,0,1,194.9,305h0a13.279,13.279,0,0,1,2.549,2.436,19.8,19.8,0,0,1,4.756-.589c.337,0,.673.012,1.008.031a18.347,18.347,0,0,0-16.1-9.53h-.015a18.368,18.368,0,0,0-17.46,12.7h0a18.332,18.332,0,0,0-.731,3.268A19.471,19.471,0,0,1,171.884,310.634Z" fill="#c40013"/>
        <path id="パス_91" data-name="パス 91" d="M174.505,319.812h0c-.054-.166-.105-.332-.151-.5a11.848,11.848,0,0,0-2.018,3.729h0a11.759,11.759,0,0,0-.55,2.81c.148.222.3.444.458.662a18.436,18.436,0,0,0,4.062,4.067h0a18.5,18.5,0,0,0,7.368,3.175c-.121-.314-.234-.626-.337-.942l-1.625-5.005a13.04,13.04,0,0,1-2.392-1.373h0a13.316,13.316,0,0,1-4.814-6.626Z" fill="#c40013"/>
        <path id="パス_92" data-name="パス 92" d="M180.424,318.054c.222-.179.45-.352.681-.52l4.358-3.167a12.993,12.993,0,0,1,.571-2.743h0A13.288,13.288,0,0,1,190.849,305h0q.21-.153.427-.3a11.987,11.987,0,0,0-4.172-.768,11.816,11.816,0,0,0-2.843.347c-.167.209-.329.424-.487.641a18.309,18.309,0,0,0-2.612,5.119h0A18.465,18.465,0,0,0,180.424,318.054Z" fill="#c40013"/>
        <path id="パス_93" data-name="パス 93" d="M185.949,343a11.831,11.831,0,0,0,2.5,1.392c.26-.074.517-.151.773-.234a18.279,18.279,0,0,0,10.417-8.627c-.333.016-.665.026-1,.026h-5.26a13.172,13.172,0,0,1-2.047,1.851h0a13.336,13.336,0,0,1-7.789,2.532h0c-.172,0-.345-.006-.517-.011A11.881,11.881,0,0,0,185.949,343Z" fill="#c40013"/>
        <path id="パス_94" data-name="パス 94" d="M204.083,329.816a11.793,11.793,0,0,0-.723-1.728,13.311,13.311,0,0,1-4.722.878h-8.086l.442,1.358a11.871,11.871,0,0,0,2.045,3.765h5.6a18.42,18.42,0,0,0,6.01-1.022A11.744,11.744,0,0,0,204.083,329.816Z" fill="#c40013"/>
        <path id="パス_95" data-name="パス 95" d="M182.991,327.015l1.737,5.346a18.523,18.523,0,0,0,2.829,5.4,11.784,11.784,0,0,0,2.892-1.526l.025-.017A11.733,11.733,0,0,0,191.892,335a13.349,13.349,0,0,1-2.292-4.22l-2.486-7.655-1.275.925A11.8,11.8,0,0,0,182.991,327.015Z" fill="#c40013"/>
        <path id="パス_96" data-name="パス 96" d="M177.7,323.077a11.744,11.744,0,0,0,2.37,2.3h0a11.466,11.466,0,0,0,1.6.974,13.331,13.331,0,0,1,3.305-3.485l6.677-4.852-1.184-.861a11.87,11.87,0,0,0-3.827-1.831l-4.679,3.4A18.432,18.432,0,0,0,177.7,323.077Z" fill="#c40013"/>
        <path id="パス_97" data-name="パス 97" d="M197.208,327.5h1.43a11.8,11.8,0,0,0,4.2-.78l.009,0,1.731-5.325a18.5,18.5,0,0,0,.886-6.031,11.923,11.923,0,0,0-3.266-.467,11.706,11.706,0,0,0-1.868.158,13.342,13.342,0,0,1-.626,4.76Z" fill="#c40013"/>
        <path id="パス_98" data-name="パス 98" d="M188.88,309.114a11.7,11.7,0,0,0-1.454,2.962l-.01.033A11.547,11.547,0,0,0,187,313.9a13.4,13.4,0,0,1,4.335,2.065l6.542,4.753.442-1.359a11.825,11.825,0,0,0,.556-4.234v-.015l-4.53-3.292A18.5,18.5,0,0,0,188.88,309.114Z" fill="#c40013"/>
        <path id="パス_99" data-name="パス 99" d="M205.3,338.047a11.863,11.863,0,0,0,3.827-1.833,11.725,11.725,0,0,0,2.094-1.95q.02-.4.019-.8a18.271,18.271,0,0,0-4.988-12.572c-.085.32-.18.637-.282.956l-1.627,5a13.085,13.085,0,0,1,1.774,6.613,13.239,13.239,0,0,1-.646,4.1C205.421,337.722,205.364,337.885,205.3,338.047Z" fill="#c40013"/>
        <path id="パス_100" data-name="パス 100" d="M214.8,330.776a13.146,13.146,0,0,1-4.811,6.623h0a13.376,13.376,0,0,1-7.786,2.537h0a13.1,13.1,0,0,1-3.5-.477,19.618,19.618,0,0,1-3.5,3.275q-.409.3-.832.567a17.753,17.753,0,0,0,2.151.853,18.274,18.274,0,0,0,5.677.9h0A18.518,18.518,0,0,0,213,341.546a18.22,18.22,0,0,0,6.677-9.185h0a18.267,18.267,0,0,0-1.331-14.431,19.513,19.513,0,0,1-2.9,8.316,13.206,13.206,0,0,1-.645,4.53Z" fill="#c40013"/>
        <path id="パス_101" data-name="パス 101" d="M202.2,308.31a18.485,18.485,0,0,0-7.654,1.68c.257.171.514.344.763.525l4.361,3.167a12.949,12.949,0,0,1,2.53-.25,13.284,13.284,0,0,1,7.788,2.53c.141.1.279.207.415.315a11.929,11.929,0,0,0-.56-4.2,11.612,11.612,0,0,0-1.208-2.6c-.251-.1-.5-.184-.759-.266a18.261,18.261,0,0,0-5.673-.9h0Z" fill="#c40013"/>
      </g>
    </g>
    <g id="グループ_19" data-name="グループ 19">
      <path id="パス_102" data-name="パス 102" d="M297.491,355.3v-.448c1.777-.112,1.872-.192,1.872-1.393v-6.146c0-.816-.112-.848-.816-.912l-.784-.08v-.4a13.143,13.143,0,0,0,2.928-.784v8.323c0,1.217.1,1.281,1.89,1.393v.448Z" fill="#1a1311"/>
      <path id="パス_103" data-name="パス 103" d="M307.7,345.136c2.4,0,3.3,2.689,3.3,5.17,0,2.337-.9,5.186-3.3,5.186-2.449,0-3.345-2.641-3.345-5.17C304.354,347.985,305.267,345.136,307.7,345.136Zm0,.56c-1.488,0-1.856,2.353-1.856,4.594s.448,4.642,1.856,4.642c1.441,0,1.825-2.385,1.825-4.626C309.524,348.049,309.124,345.7,307.7,345.7Z" fill="#1a1311"/>
      <path id="パス_104" data-name="パス 104" d="M315.219,355.284a1.618,1.618,0,0,1-.689.208c-1.024,0-1.568-.624-1.568-1.9V348.93h-1.105l-.063-.192.432-.465h.736v-1.344c.3-.32.768-.737,1.072-1.056l.24.031c-.032.673-.047,1.6-.047,2.369h1.825a.5.5,0,0,1-.1.657h-1.728v4.1c0,1.3.511,1.537.928,1.537a2.287,2.287,0,0,0,.976-.256l.144.416Z" fill="#1a1311"/>
      <path id="パス_105" data-name="パス 105" d="M321.348,355.3v-.448c.927-.1,1.055-.176,1.055-1.232v-2.625c0-1.329-.511-2-1.584-1.985a2.286,2.286,0,0,0-1.7.832v3.778c0,1.04.128,1.136,1.089,1.232v.448h-3.489v-.448c.927-.08,1.135-.16,1.135-1.232V345.9c0-.848-.047-1.056-1.12-1.152v-.416a9.906,9.906,0,0,0,2.385-.544v5.458a3.615,3.615,0,0,1,2.321-1.168c1.313,0,2.225.816,2.225,2.736v2.818c0,1.056.128,1.136,1.057,1.216v.448Z" fill="#1a1311"/>
      <path id="パス_106" data-name="パス 106" d="M334.947,355.3v-.448c1.04-.128,1.168-.288.945-.9-.208-.624-.529-1.425-.865-2.433H331.57c-.257.72-.5,1.344-.72,2-.353,1.041-.128,1.169,1.184,1.329v.448h-3.7v-.448c1.008-.128,1.265-.24,1.824-1.681l3.314-8.4.512-.1c1.008,2.737,2.113,5.762,3.121,8.532.512,1.392.657,1.52,1.792,1.648v.448Zm-1.6-8.531c-.513,1.377-1.057,2.833-1.537,4.1H334.8Z" fill="#1a1311"/>
      <path id="パス_107" data-name="パス 107" d="M343.7,355.3v-.448c.928-.1,1.025-.208,1.025-1.3v-2.641c0-1.121-.4-1.873-1.457-1.873a2.8,2.8,0,0,0-1.777.832v3.746c0,1.1.1,1.136,1.04,1.232v.448h-3.457v-.448c1.057-.112,1.153-.176,1.153-1.232v-3.3c0-1.04-.113-1.088-.977-1.232v-.416a9.144,9.144,0,0,0,2.241-.641V349.3c.321-.224.672-.465,1.088-.736a2.448,2.448,0,0,1,1.329-.48c1.28,0,2.081.944,2.081,2.5v3.041c0,1.088.1,1.136,1.025,1.232v.448Z" fill="#1a1311"/>
      <path id="パス_108" data-name="パス 108" d="M352.547,355.3v-.448c.928-.1,1.024-.208,1.024-1.3v-2.641c0-1.121-.4-1.873-1.457-1.873a2.8,2.8,0,0,0-1.776.832v3.746c0,1.1.1,1.136,1.04,1.232v.448h-3.457v-.448c1.057-.112,1.152-.176,1.152-1.232v-3.3c0-1.04-.112-1.088-.976-1.232v-.416a9.144,9.144,0,0,0,2.241-.641V349.3c.32-.224.672-.465,1.088-.736a2.448,2.448,0,0,1,1.329-.48c1.28,0,2.081.944,2.081,2.5v3.041c0,1.088.1,1.136,1.024,1.232v.448Z" fill="#1a1311"/>
      <path id="パス_109" data-name="パス 109" d="M356.784,355.3v-.448c1.009-.1,1.121-.176,1.121-1.265v-3.3c0-.992-.049-1.056-1.009-1.216v-.385a10.47,10.47,0,0,0,2.273-.64v5.538c0,1.089.112,1.169,1.153,1.265v.448Zm1.665-8.819a.876.876,0,0,1-.848-.849.864.864,0,0,1,.864-.88.835.835,0,0,1,.816.88A.851.851,0,0,1,358.449,346.481Z" fill="#1a1311"/>
      <path id="パス_110" data-name="パス 110" d="M368.163,348.706c-.864.112-.976.24-1.392,1.2-.529,1.281-1.441,3.409-2.273,5.571h-.465c-.672-1.841-1.456-3.746-2.209-5.619-.368-.928-.5-1.025-1.328-1.152v-.433h3.266v.433c-.881.112-.913.224-.657.912.4,1.1,1.073,2.8,1.521,3.922.576-1.425,1.1-2.738,1.456-3.762.272-.784.225-.96-.832-1.072v-.433h2.913Z" fill="#1a1311"/>
      <path id="パス_111" data-name="パス 111" d="M374.243,353.94a3.646,3.646,0,0,1-2.657,1.552,3.2,3.2,0,0,1-3.138-3.441,4.109,4.109,0,0,1,1.04-2.8,3.286,3.286,0,0,1,2.386-1.168,2.5,2.5,0,0,1,2.448,2.481c-.015.319-.063.463-.319.528-.32.064-2.369.208-4.274.272-.048,2.144,1.264,3.025,2.4,3.025a2.7,2.7,0,0,0,1.856-.816Zm-2.754-5.251c-.736,0-1.456.689-1.68,1.985.9,0,1.793,0,2.737-.048.288,0,.384-.08.384-.32A1.489,1.489,0,0,0,371.489,348.689Z" fill="#1a1311"/>
      <path id="パス_112" data-name="パス 112" d="M378.961,355.3H375.28v-.448c1.008-.1,1.105-.176,1.105-1.216v-3.33c0-1.056-.065-1.1-.993-1.216v-.4a8.764,8.764,0,0,0,2.256-.656v1.761c.561-.832,1.234-1.712,2.034-1.712a.826.826,0,0,1,.928.768,1.072,1.072,0,0,1-.545.88.316.316,0,0,1-.416-.032,1.008,1.008,0,0,0-.719-.4c-.336,0-.929.5-1.282,1.312v3.01c0,1.056.081,1.136,1.313,1.232Z" fill="#1a1311"/>
      <path id="パス_113" data-name="パス 113" d="M385.41,350.178c-.288-.928-.705-1.569-1.681-1.569a.973.973,0,0,0-.993,1.041c0,.688.465,1.008,1.362,1.425,1.376.656,2.064,1.136,2.064,2.193a2.383,2.383,0,0,1-2.609,2.224,4.188,4.188,0,0,1-1.9-.448c-.08-.464-.224-1.344-.288-1.873l.464-.08c.288,1.025.849,1.857,1.969,1.857a1.067,1.067,0,0,0,1.12-1.088c0-.72-.432-1.089-1.28-1.5-1.12-.544-2.032-1.056-2.032-2.209a2.218,2.218,0,0,1,2.5-2.064,8.162,8.162,0,0,1,1.536.208c.048.384.16,1.392.24,1.776Z" fill="#1a1311"/>
      <path id="パス_114" data-name="パス 114" d="M392.338,355.492a1.171,1.171,0,0,1-.752-.3,1.5,1.5,0,0,1-.385-.72,5.02,5.02,0,0,1-1.921,1.024,1.963,1.963,0,0,1-1.952-1.969,1.629,1.629,0,0,1,1.313-1.6,12.628,12.628,0,0,0,2.529-1.041v-.319c0-1.137-.577-1.793-1.409-1.793a.928.928,0,0,0-.752.368,3.43,3.43,0,0,0-.433,1.04.445.445,0,0,1-.464.368.769.769,0,0,1-.7-.7c0-.224.208-.416.529-.64a6.692,6.692,0,0,1,2.3-1.12,2.1,2.1,0,0,1,2.161,2.288v3.089c0,.737.272.961.56.961a1.271,1.271,0,0,0,.576-.176l.16.448Zm-1.168-4.049c-.353.176-1.121.512-1.489.672-.609.272-.977.576-.977,1.169a1.164,1.164,0,0,0,1.152,1.232,2.128,2.128,0,0,0,1.314-.576Z" fill="#1a1311"/>
      <path id="パス_115" data-name="パス 115" d="M398.049,355.3h-3.681v-.448c1.008-.1,1.1-.176,1.1-1.216v-3.33c0-1.056-.065-1.1-.994-1.216v-.4a8.759,8.759,0,0,0,2.257-.656v1.761c.561-.832,1.234-1.712,2.034-1.712a.826.826,0,0,1,.928.768,1.074,1.074,0,0,1-.545.88.316.316,0,0,1-.416-.032,1.008,1.008,0,0,0-.719-.4c-.336,0-.929.5-1.282,1.312v3.01c0,1.056.08,1.136,1.313,1.232Z" fill="#1a1311"/>
      <path id="パス_116" data-name="パス 116" d="M407.331,348.706c-.833.127-1.009.256-1.409,1.168s-.832,1.985-1.937,4.77a44.166,44.166,0,0,0-1.585,4.386c-.1.336-.271.416-.479.416a.928.928,0,0,1-.977-.768c0-.208.113-.352.352-.56a3.6,3.6,0,0,0,1.073-1.185c.336-.672.576-1.232.656-1.441a.937.937,0,0,0-.032-.656c-.624-1.825-1.488-3.794-1.969-4.946-.352-.88-.5-1.072-1.377-1.184v-.433h3.234v.433c-.736.112-.817.272-.609.864l1.553,3.937c.448-1.1,1.089-2.881,1.425-3.889.192-.608.08-.785-.849-.912v-.433h2.93Z" fill="#1a1311"/>
    </g>
    <g id="グループ_21" data-name="グループ 21">
      <path id="パス_117" data-name="パス 117" d="M308.211,330.042c-1.337,1.761-3.371,3.1-5.193,3.1a6.126,6.126,0,0,1-6.133-6.376,7.209,7.209,0,0,1,3.066-5.952,8.04,8.04,0,0,1,4.616-1.731,4.5,4.5,0,0,1,2.824.82.958.958,0,0,1,.486.881,1.533,1.533,0,0,1-1.094,1.366c-.151,0-.273-.061-.577-.3a4.51,4.51,0,0,0-3.066-1.275c-2,0-3.766,1.7-3.766,4.859-.03,4.22,2.855,5.617,4.616,5.617a4.866,4.866,0,0,0,3.7-1.67Z" fill="#1a1311"/>
      <path id="パス_118" data-name="パス 118" d="M318.076,332.774v-.849c1.761-.183,2-.334,2-2.339v-4.979c0-2.521-.971-3.8-3.006-3.766a4.332,4.332,0,0,0-3.218,1.579v7.166c0,1.973.243,2.156,2.064,2.339v.849H309.3v-.849c1.761-.153,2.155-.3,2.155-2.339V314.951c0-1.61-.091-2-2.125-2.187v-.789a18.775,18.775,0,0,0,4.525-1.033V321.3a6.848,6.848,0,0,1,4.4-2.217c2.49,0,4.221,1.549,4.221,5.193v5.343c0,2.005.243,2.156,2.005,2.309v.849Z" fill="#1a1311"/>
      <path id="パス_119" data-name="パス 119" d="M335.957,333.139a2.225,2.225,0,0,1-1.427-.577,2.85,2.85,0,0,1-.728-1.367c-1.215.82-2.7,1.944-3.645,1.944a3.725,3.725,0,0,1-3.7-3.735c0-1.488.82-2.46,2.49-3.037a23.967,23.967,0,0,0,4.8-1.973v-.608c0-2.155-1.092-3.4-2.672-3.4a1.76,1.76,0,0,0-1.426.7,6.537,6.537,0,0,0-.821,1.974.843.843,0,0,1-.88.7,1.46,1.46,0,0,1-1.336-1.336c0-.425.395-.789,1-1.214a12.752,12.752,0,0,1,4.373-2.126,3.99,3.99,0,0,1,4.1,4.342v5.86c0,1.4.516,1.822,1.063,1.822a2.4,2.4,0,0,0,1.092-.334l.3.851Zm-2.217-7.682c-.668.334-2.125.972-2.823,1.275-1.154.516-1.852,1.093-1.852,2.216a2.209,2.209,0,0,0,2.186,2.339,4.028,4.028,0,0,0,2.489-1.094Z" fill="#1a1311"/>
      <path id="パス_120" data-name="パス 120" d="M339.356,332.774v-.849c1.943-.183,2.185-.334,2.185-2.339V315.041c0-1.852-.151-2.034-2.095-2.277v-.789a21.6,21.6,0,0,0,4.495-1.033v18.644c0,2.005.181,2.156,2.155,2.339v.849Z" fill="#1a1311"/>
      <path id="パス_121" data-name="パス 121" d="M347.248,332.774v-.849c1.944-.183,2.186-.334,2.186-2.339V315.041c0-1.852-.152-2.034-2.1-2.277v-.789a21.587,21.587,0,0,0,4.494-1.033v18.644c0,2.005.182,2.156,2.155,2.339v.849Z" fill="#1a1311"/>
      <path id="パス_122" data-name="パス 122" d="M366.74,330.193c-1.943,2.43-4.069,2.946-5.041,2.946-3.705,0-5.951-3.037-5.951-6.529a7.8,7.8,0,0,1,1.974-5.313,6.225,6.225,0,0,1,4.524-2.217,4.737,4.737,0,0,1,4.646,4.706c-.031.608-.121.881-.608,1-.607.121-4.494.394-8.107.516-.091,4.069,2.4,5.739,4.555,5.739a5.136,5.136,0,0,0,3.522-1.549Zm-5.223-9.959c-1.4,0-2.763,1.306-3.188,3.765,1.7,0,3.4,0,5.193-.091.546,0,.728-.152.728-.607A2.824,2.824,0,0,0,361.517,320.234Z" fill="#1a1311"/>
      <path id="パス_123" data-name="パス 123" d="M377.425,332.774v-.849c1.761-.183,1.943-.4,1.943-2.46v-5.01c0-2.126-.759-3.553-2.763-3.553a5.309,5.309,0,0,0-3.371,1.579v7.105c0,2.1.183,2.156,1.974,2.339v.849H368.65v-.849c2-.213,2.186-.334,2.186-2.339v-6.255c0-1.973-.213-2.065-1.852-2.338v-.79a17.175,17.175,0,0,0,4.25-1.214v2.4c.608-.425,1.276-.881,2.065-1.4a4.666,4.666,0,0,1,2.52-.911c2.43,0,3.948,1.791,3.948,4.737v5.769c0,2.065.182,2.156,1.943,2.339v.849Z" fill="#1a1311"/>
      <path id="パス_124" data-name="パス 124" d="M389.778,328.342a2.22,2.22,0,0,0-1,1.517c0,.547.517,1.155,1.883,1.155,1.124,0,2.4-.031,3.4-.031,1.943,0,4.432.638,4.432,3.644,0,3.158-3.734,6.134-7.773,6.134-3.431,0-5.283-2-5.344-3.8a2.4,2.4,0,0,1,.759-1.731,28.683,28.683,0,0,1,2.49-2.186,3.951,3.951,0,0,1-2.277-1.64,2.746,2.746,0,0,1-.364-1.306,6.418,6.418,0,0,0,2.792-2.094Zm1.458.3c-2.824,0-5.162-1.73-5.162-4.584,0-3.462,3.1-5.071,5.466-5.071a6.236,6.236,0,0,1,2.915.759,20.448,20.448,0,0,0,4.069-.455l.182.273a3.77,3.77,0,0,1-1.124,1.609c-.455,0-1.457-.121-1.882-.152a4.689,4.689,0,0,1,.88,2.763C396.58,327.1,393.848,328.644,391.236,328.644Zm.7,4.495a3.843,3.843,0,0,0-2.7.637,3.5,3.5,0,0,0-1.458,2.49c0,1.67,1.73,2.915,4.069,2.915,2.885,0,4.524-1.488,4.524-3.431a2.279,2.279,0,0,0-1.336-2.216A8.165,8.165,0,0,0,391.935,333.139Zm-.7-13.178c-1.366,0-2.581,1.245-2.581,3.643s1.215,4.069,2.885,4.069c1.336-.061,2.521-1.184,2.521-3.643C394.061,321.661,392.937,319.961,391.236,319.961Z" fill="#1a1311"/>
      <path id="パス_125" data-name="パス 125" d="M410.879,330.193c-1.943,2.43-4.069,2.946-5.041,2.946-3.705,0-5.951-3.037-5.951-6.529a7.8,7.8,0,0,1,1.973-5.313,6.229,6.229,0,0,1,4.525-2.217,4.737,4.737,0,0,1,4.645,4.706c-.03.608-.121.881-.607,1-.607.121-4.494.394-8.107.516-.091,4.069,2.4,5.739,4.554,5.739a5.138,5.138,0,0,0,3.523-1.549Zm-5.224-9.959c-1.4,0-2.762,1.306-3.187,3.765,1.7,0,3.4,0,5.192-.091.546,0,.729-.152.729-.607A2.824,2.824,0,0,0,405.655,320.234Z" fill="#1a1311"/>
      <path id="パス_126" data-name="パス 126" d="M429.8,328.669c-.39,1.349-.9,2.88-1.2,3.989h-11.31v-.72c1.65-1.62,3.449-3.389,4.92-5.1,1.89-2.22,3.689-4.62,3.689-7.23,0-2.49-1.32-3.93-3.509-3.93-2.071,0-3.361,1.62-4.14,2.79l-.69-.63,1.71-2.43a5.441,5.441,0,0,1,4.11-1.8,4.9,4.9,0,0,1,5.1,5.19c0,2.55-.93,4.35-3.781,7.259-1.29,1.35-3.179,3.18-4.469,4.411h5.729c1.62,0,2.07-.151,3.09-2.04Z" fill="#1a1311"/>
      <path id="パス_127" data-name="パス 127" d="M438.172,313.609c4.5,0,6.18,5.04,6.18,9.69,0,4.38-1.68,9.719-6.18,9.719-4.59,0-6.27-4.95-6.27-9.689C431.9,318.949,433.612,313.609,438.172,313.609Zm0,1.05c-2.789,0-3.479,4.41-3.479,8.61s.839,8.7,3.479,8.7c2.7,0,3.42-4.47,3.42-8.67C441.592,319.069,440.842,314.659,438.172,314.659Z" fill="#1a1311"/>
      <path id="パス_128" data-name="パス 128" d="M458.9,328.669c-.389,1.349-.9,2.88-1.2,3.989H446.393v-.72c1.649-1.62,3.449-3.389,4.92-5.1,1.889-2.22,3.689-4.62,3.689-7.23,0-2.49-1.32-3.93-3.51-3.93-2.07,0-3.36,1.62-4.139,2.79l-.691-.63,1.71-2.43a5.443,5.443,0,0,1,4.111-1.8,4.9,4.9,0,0,1,5.1,5.19c0,2.55-.93,4.35-3.78,7.259-1.29,1.35-3.18,3.18-4.47,4.411h5.73c1.62,0,2.07-.151,3.089-2.04Z" fill="#1a1311"/>
      <path id="パス_129" data-name="パス 129" d="M467.272,313.609c4.5,0,6.179,5.04,6.179,9.69,0,4.38-1.679,9.719-6.179,9.719-4.59,0-6.27-4.95-6.27-9.689C461,318.949,462.712,313.609,467.272,313.609Zm0,1.05c-2.789,0-3.48,4.41-3.48,8.61s.84,8.7,3.48,8.7c2.7,0,3.42-4.47,3.42-8.67C470.692,319.069,469.942,314.659,467.272,314.659Z" fill="#1a1311"/>
      <g id="グループ_20" data-name="グループ 20">
        <path id="パス_130" data-name="パス 130" d="M250.427,328.523c-.291,1.067-1.006,3.128-1.4,4.251h-17.12v-.849c2.763-.274,4.007-.426,4.007-3.007V316.864c0-2.581-.3-2.733-2.734-2.976v-.851h8.138v.851c-2.429.243-2.763.364-2.763,2.976v12.358c0,1.852.243,2.277,1.974,2.307.03,0,4.217.03,4.4.03,1.549,0,2.224-.159,2.939-.9a6.364,6.364,0,0,0,1.616-2.376Z" fill="#1a1311"/>
        <path id="パス_131" data-name="パス 131" d="M260.691,312.613a9.761,9.761,0,0,1,9.838,10.02c0,6.528-4.433,10.6-10.021,10.6a9.884,9.884,0,0,1-10.081-10.142C250.427,317.653,254.284,312.613,260.691,312.613Z" fill="#1a1311"/>
        <path id="パス_132" data-name="パス 132" d="M278.97,313.037c4.282,0,6.985.851,8.868,2.642a8.792,8.792,0,0,1,2.581,6.5,9.983,9.983,0,0,1-3.8,8.2c-2.308,1.73-5.253,2.4-8.989,2.4h-7.105v-.849c2.611-.244,2.733-.456,2.733-2.946V316.864c0-2.612-.364-2.733-2.733-2.976v-.851Zm-3.066,15.7c0,2.278.972,2.915,3.249,2.915,5.466,0,8.259-3.735,8.259-9.049,0-3.309-1.123-5.83-3.523-7.287A9.6,9.6,0,0,0,278.7,314.1a4.321,4.321,0,0,0-2.4.425c-.273.182-.394.516-.394,1.7Z" fill="#1a1311"/>
        <ellipse id="楕円形_4" data-name="楕円形 4" cx="7.087" cy="9.248" rx="7.087" ry="9.248" transform="translate(253.392 313.627)" fill="#fff"/>
      </g>
    </g>
  </g>
</svg>
