<svg xmlns="http://www.w3.org/2000/svg" width="100.413" height="100.414" viewBox="0 0 100.413 100.414">
  <g id="_2020_mini_logo_idea" data-name="2020_mini_logo_idea" transform="translate(-62.749 -640.531)">
    <path id="パス_39" data-name="パス 39" d="M163.162,690.737a50.207,50.207,0,1,1-50.207-50.206A50.206,50.206,0,0,1,163.162,690.737Z" transform="translate(0)" fill="#c40013"/>
    <path id="パス_40" data-name="パス 40" d="M106.7,649.11a23.877,23.877,0,0,0-23.848,23.849c0,7.075,3.6,11.8,7.089,16.364,2.346,3.075,4.77,6.253,6.065,10.139.624,1.872,1.128,3.5,1.533,4.917a1.485,1.485,0,0,0-.67,1.349,1.549,1.549,0,0,0,1.468,1.624l.005.026A1.552,1.552,0,0,0,96.87,709a1.638,1.638,0,1,1,0,3.277,1.639,1.639,0,1,1,0,3.278,1.638,1.638,0,1,1,0,3.276,1.638,1.638,0,1,1,0,3.276,1.605,1.605,0,0,0,1.639,1.639h1.638a9.734,9.734,0,0,0,3.278,1.3v.089h.043a.84.84,0,0,0-.043.253c0,.9,1.467,1.639,3.276,1.639s3.276-.734,3.276-1.639a.84.84,0,0,0-.043-.253h.043v-.089a9.693,9.693,0,0,0,3.276-1.3h1.639a3.664,3.664,0,0,1,1.639-4.915,1.639,1.639,0,0,1,0-3.278,1.638,1.638,0,1,1,0-3.276,1.638,1.638,0,1,1,0-3.277,1.55,1.55,0,0,0-1.474-1.626l.007-.027a1.549,1.549,0,0,0,1.467-1.625,1.483,1.483,0,0,0-.669-1.348c.405-1.415.909-3.044,1.533-4.917,1.294-3.887,3.721-7.064,6.065-10.139,3.484-4.567,7.088-9.289,7.088-16.364A23.877,23.877,0,0,0,106.7,649.11Zm-2.41,32.787c1.358,0,2.308-1.353,2.308-3.291a5.639,5.639,0,0,0-.818-2.95,2.918,2.918,0,0,1,1.76-.025,5.623,5.623,0,0,0-.835,2.975c0,1.938.949,3.291,2.31,3.291,1.319,0,2.243-1.3,2.243-3.155a5.729,5.729,0,0,0-.915-3.122,2.7,2.7,0,0,1,.8-.113,2.548,2.548,0,0,1,2.148,1.341c.5.983.24,2.229-.755,3.606l-.269.367c-2.273,3.11-4.243,5.808-4.342,23.267h-2.448c-.1-17.57-2.134-20.246-4.479-23.331l-.243-.319a3.29,3.29,0,0,1-.611-3.51,2.467,2.467,0,0,1,2.015-1.421,2.671,2.671,0,0,1,.863.132,5.783,5.783,0,0,0-.941,3.173C102.082,680.658,102.969,681.9,104.291,681.9Zm-.391-3.084a4.073,4.073,0,0,1,.489-1.921,3.864,3.864,0,0,1,.391,1.714c0,.972-.344,1.471-.489,1.471C104.173,680.077,103.9,679.646,103.9,678.813Zm4.626-.207a3.858,3.858,0,0,1,.422-1.779,4,4,0,0,1,.489,1.915c0,.88-.3,1.335-.422,1.335C108.868,680.077,108.526,679.578,108.526,678.606Zm13.487,9.613c-2.435,3.193-4.953,6.494-6.346,10.666-.663,1.994-1.19,3.712-1.617,5.2h-4.3c.092-16.858,1.9-19.336,3.991-22.192l.274-.376c1.892-2.614,1.377-4.568.9-5.5a4.338,4.338,0,0,0-3.768-2.334,4.276,4.276,0,0,0-2.214.577,4.349,4.349,0,0,0-2.229-.577,4.41,4.41,0,0,0-2.273.607,4.118,4.118,0,0,0-5.912,1.824,5.08,5.08,0,0,0,.788,5.419l.245.323c2.15,2.827,4.013,5.28,4.109,22.23H99.351c-.425-1.491-.952-3.21-1.617-5.2-1.391-4.172-3.908-7.473-6.346-10.665-3.452-4.527-6.714-8.8-6.714-15.261a22.027,22.027,0,1,1,44.055,0C128.729,679.419,125.467,683.693,122.013,688.219Z" transform="translate(6.255 2.669)" fill="#fff"/>
  </g>
</svg>
